<?xml version="1.0" encoding="utf-8"?>
<!-- Generator: Adobe Illustrator 27.9.0, SVG Export Plug-In . SVG Version: 6.00 Build 0)  -->
<svg version="1.1" id="Layer_1" xmlns="http://www.w3.org/2000/svg" xmlns:xlink="http://www.w3.org/1999/xlink" x="0px" y="0px"
	 viewBox="0 0 800 800" style="enable-background:new 0 0 800 800;" xml:space="preserve">
<style type="text/css">
	.st0{fill:#CE2029;}
	.st1{fill:#FFFFFF;}
</style>
<g>
	<path class="st0" d="M762.31,339.77c-0.86-27.74-6.72-41.6-17.51-43.62c-11.58-2.16-23.17-5.13-34.76-6.36
		c-80.28-8.45-160.56-17.85-240.85-24.38c-86.91-7.07-173.81-3.07-260.69,3.88c-50.74,2.14-101.44,6.55-152.08,15.56
		c-9.86,1.76-16.84,10.54-18.11,38.19c-1.88,41-1.44,81.71,1.31,122.35c1.19,17.65,5.93,25.09,12.38,27.44
		c46.37,16.92,93.11,24.51,139.79,32.98c67.56,12.25,135.15,26.76,202.81,31.57c69.65,4.96,139.24-10.99,208.74-22.8
		c46.04-7.83,92.04-16.93,138.05-25.22c9.08-1.64,15.86-9.75,18.01-34.1C762.74,417.13,763.5,378.67,762.31,339.77z M673.23,339.48
		c0.53-1.15,2.1-2.01,3.21-2.06c5.32-0.21,10.65-0.09,15.98-0.09c0.29,0.71,0.57,1.42,0.86,2.14c-6.63,8.59-12.92,17.73-20.08,25.44
		c-2.52,2.71-7.18,1.93-12.49,3.12C665.45,357.14,669.23,348.23,673.23,339.48z M265.84,339.36c0.47-1.02,1.76-1.9,2.68-1.92
		c5.52-0.18,11.03-0.09,16.55-0.09c0.24,0.72,0.49,1.46,0.74,2.18c-6.66,8.57-12.97,17.7-20.17,25.41c-2.52,2.7-7.16,1.9-12.46,3.04
		C257.99,357.02,261.84,348.13,265.84,339.36z M163.32,436.67c-18.78,8.68-38.18,7.23-58.13,6.99c0.44-2.34,0.7-4.4,1.22-6.36
		c7.59-28.62,15.27-57.19,22.72-85.88c1.15-4.45,2.65-6.31,6.31-6.11c6.85,0.37,13.72,0.1,21.44,0.1
		c-7.43,27.96-14.55,54.8-22.1,83.26c4.54-0.87,8.4-0.99,11.96-2.43c21.58-8.67,36.18-26.84,41.64-56.34
		c2.86-15.49-0.78-35.63-19.09-36.21c-22.73-0.74-45.49-0.69-68.23-0.96c-2.17-0.03-4.35-0.01-7.61-0.01
		c3.65-8.05,6.66-15.04,9.98-21.77c0.61-1.23,2.48-1.91,3.77-1.92c24.44-0.08,48.87-0.15,73.31,0.13c3.84,0.05,7.74,1.41,11.49,2.78
		c22.4,8.18,31.86,31.48,24.1,60.49C207.11,406.04,187.92,425.31,163.32,436.67z M704.86,443.51c-18.62,0.22-37.25-0.48-55.88-1
		c-8.45-0.23-14.94-6.36-21.06-13.28c0.01,0.02,0.01,0.03,0.01,0.06h-0.14c-1.33,8.61-6.17,14.15-13.95,14.38
		c-14,0.4-28,0.45-41.98-0.13c-3.12-0.14-6.15-3.47-10.29-5.99c-5.48,7.32-13.94,6.37-22.27,6.29c-7.29-0.08-14.56,0.14-21.84-0.08
		c-7-0.2-9.86-5.19-7.96-14.13c1.34-6.38,3.21-12.57,4.16-19.77c-6.24,7.02-12.7,13.73-18.66,21.16
		c-8.95,11.15-19.22,15.29-31.55,12.03c0.25-2.03,0.52-4.11,0.91-7.26c-8.41,10.4-18.37,8.21-27.78,7.68
		c-9.17-0.53-19.6,4.83-27.34-8.13c-5.28,5.84-11.24,10.27-18.73,10.04c-7.59-0.22-13.1-4.76-17.27-13.57
		c-5.53,11.82-14.01,12.24-22.8,12.07c-10.94-0.22-10.96-0.07-15.03,13.59c-4.33,14.56-12.35,23.1-23.88,26.01
		c-14.17,3.56-24.92-10.68-22.33-29.66c0.43-3.11,1.1-6.17,1.79-10c-13.58,0-26.8,0.34-40-0.16c-5.88-0.23-11.96-1.21-17.56-3.54
		c-15.13-6.28-19.57-29.29-9.15-45.34c6.19-9.53,14.43-14.52,23.47-15.36c9.6-0.9,19.33,0.13,28.95,1.11
		c3.16,0.32,6.39,2.68,9.18,4.96c5.03,4.1,6.88,11.55,4.78,18.76c-1.94,6.68-5.17,10.95-11.38,10.25
		c-5.92-0.67-11.92-0.14-18.86-0.14c2.44-6.87,4.6-12.94,7.29-20.48c-4.74,0-8.9-0.25-13,0.18c-1.07,0.11-2.48,2.16-2.92,3.73
		c-1.89,6.69-3.48,13.5-5.13,20.32c-1.31,5.48,0.62,8.56,4.52,9.69c1.99,0.57,4.08,0.75,6.12,0.72c18.27-0.18,36.56-0.56,54.83-0.57
		c3.38,0,4.83-1.47,5.91-5.67c3.35-13.08,6.95-26.05,10.79-38.89c0.61-2.01,2.92-4.3,4.52-4.4c7.25-0.47,14.52-0.21,22.65-0.21
		c-4.35,16.52-8.5,32.42-12.89,49.09h28.32c0.2-4.82,0.02-9.75,0.64-14.51c2.46-18.89,14.68-33.12,31.01-34.24
		c15.42-1.05,30.91-0.22,47.08-0.22c-4.4,16.28-8.64,31.96-13.26,49c9.9,0,19.1,0.18,28.28-0.24c1.09-0.05,2.52-3.2,3.08-5.24
		c3.52-12.74,6.93-25.53,10.14-38.42c0.95-3.84,2.16-5.53,5.43-5.35c7.08,0.39,14.17,0.13,22.03,0.13
		c-2.42,9.46-4.7,18.34-6.97,27.22c0.3,0.32,0.6,0.64,0.9,0.97c6.08-6.61,12.18-13.18,18.23-19.84
		c6.18-6.78,12.89-11.68,21.24-11.36c4.58,0.18,7.05,3.11,6.83,9.16c-0.14,3.63-0.61,7.37-1.47,10.81
		c-2.62,10.53-5.51,20.93-8.64,32.69c9.08,0,17.73,0.07,26.39-0.13c0.78-0.02,1.94-1.58,2.26-2.74c2.81-10.14,5.47-20.34,8.46-31.59
		h-10.55c0.55-11.14,2.49-15.29,9.14-17.83c11-4.2,18.53-13.89,23.43-26.81c2.99-7.88,6.72-10.87,13-9.4
		c1.44,0.33,2.96,0.05,5.27,0.05c-3.36,13.07-6.54,25.46-9.94,38.73h17.58c-1.95,9.61-6.81,14.8-15.02,14.66
		c-5.43-0.09-7.99,2.46-9.37,9.22c-1.68,8.28-4.04,16.31-6.69,26.7h37.86c0.01-0.06,0.02-0.1,0.03-0.16
		c0.03,0.03,0.07,0.07,0.09,0.1c-0.57-5.06-1.72-10.15-1.62-15.18c0.25-11.39,4.19-20.7,11.65-26.35
		c17-12.87,35.05-12.14,52.81-4.04c9.62,4.38,10.92,19.55,3.46,28.2c-0.93,1.08-2.17,2.34-3.29,2.38
		c-7.39,0.22-14.78,0.11-23.05,0.11c2.56-7.17,4.74-13.26,7.36-20.57c-4.66,0-8.5-0.31-12.3,0.17c-1.29,0.17-3.06,2.02-3.54,3.66
		c-1.96,6.64-3.57,13.47-5.2,20.28c-1.4,5.85,0.65,9.11,4.88,9.94c3.12,0.61,6.32,0.68,9.48,0.69c16.57,0.06,33.13,0.02,49.77,0.02
		C717.5,436.92,712.38,443.43,704.86,443.51z"/>
	<path class="st1" d="M285.8,339.53c-6.66,8.57-12.97,17.7-20.17,25.41c-2.52,2.7-7.16,1.9-12.46,3.04
		c4.81-10.95,8.66-19.85,12.66-28.62c0.47-1.02,1.76-1.9,2.68-1.92c5.52-0.18,11.03-0.09,16.55-0.09
		C285.31,338.07,285.56,338.81,285.8,339.53z"/>
	<path class="st1" d="M693.28,339.47c-6.63,8.59-12.92,17.73-20.08,25.44c-2.52,2.71-7.18,1.93-12.49,3.12
		c4.74-10.89,8.52-19.8,12.52-28.55c0.53-1.15,2.1-2.01,3.21-2.06c5.32-0.21,10.65-0.09,15.98-0.09
		C692.71,338.05,693,338.76,693.28,339.47z"/>
	<path class="st1" d="M718.33,428.55c-0.83,8.37-5.94,14.88-13.47,14.96c-18.62,0.22-37.25-0.48-55.88-1
		c-8.45-0.23-14.94-6.36-21.06-13.28c-0.57-5.06-1.72-10.15-1.62-15.18c0.25-11.39,4.19-20.7,11.65-26.35
		c17-12.87,35.05-12.14,52.81-4.04c9.62,4.38,10.92,19.55,3.46,28.2c-0.93,1.08-2.17,2.34-3.29,2.38
		c-7.39,0.22-14.78,0.11-23.05,0.11c2.56-7.17,4.74-13.26,7.36-20.57c-4.66,0-8.5-0.31-12.3,0.17c-1.29,0.17-3.06,2.02-3.54,3.66
		c-1.96,6.64-3.57,13.47-5.2,20.28c-1.4,5.85,0.65,9.11,4.88,9.94c3.12,0.61,6.32,0.68,9.48,0.69
		C685.13,428.58,701.68,428.55,718.33,428.55z"/>
	<path class="st1" d="M589.94,429.28c2.65-10.39,5.01-18.42,6.69-26.7c1.38-6.76,3.94-9.31,9.37-9.22
		c8.21,0.14,13.07-5.05,15.02-14.66h-17.58c3.4-13.26,6.58-25.66,9.94-38.73c-2.31,0-3.83,0.29-5.27-0.05
		c-6.27-1.47-10.01,1.52-13,9.4c-4.9,12.93-12.43,22.62-23.43,26.81c-6.64,2.54-8.59,6.7-9.14,17.83h10.55
		c-2.99,11.25-5.64,21.46-8.46,31.59c-0.32,1.16-1.48,2.72-2.26,2.74c-8.65,0.2-17.31,0.13-26.39,0.13
		c3.13-11.76,6.02-22.16,8.64-32.69c0.86-3.45,1.33-7.18,1.47-10.81c0.22-6.05-2.25-8.98-6.83-9.16
		c-8.35-0.32-15.05,4.58-21.24,11.36c-6.05,6.65-12.16,13.23-18.23,19.84c-0.3-0.33-0.6-0.65-0.9-0.97
		c2.27-8.88,4.55-17.76,6.97-27.22c-7.86,0-14.95,0.26-22.03-0.13c-3.27-0.17-4.48,1.52-5.43,5.35
		c-3.21,12.89-6.62,25.68-10.14,38.42c-0.56,2.04-1.99,5.2-3.08,5.24c-9.18,0.42-18.38,0.24-28.28,0.24
		c4.62-17.04,8.86-32.72,13.26-49c-16.17,0-31.66-0.83-47.08,0.22c-16.33,1.13-28.55,15.35-31.01,34.24
		c-0.62,4.76-0.45,9.69-0.64,14.51h-28.32c4.38-16.68,8.54-32.57,12.89-49.09c-8.13,0-15.4-0.26-22.65,0.21
		c-1.6,0.1-3.91,2.39-4.52,4.4c-3.84,12.84-7.44,25.81-10.79,38.89c-1.08,4.19-2.53,5.67-5.91,5.67
		c-18.27,0.01-36.55,0.39-54.83,0.57c-2.04,0.02-4.14-0.15-6.12-0.72c-3.9-1.13-5.83-4.21-4.52-9.69
		c1.64-6.82,3.24-13.63,5.13-20.32c0.44-1.57,1.85-3.61,2.92-3.73c4.1-0.44,8.25-0.18,13-0.18c-2.69,7.54-4.85,13.61-7.29,20.48
		c6.94,0,12.94-0.53,18.86,0.14c6.21,0.7,9.44-3.57,11.38-10.25c2.1-7.2,0.25-14.65-4.78-18.76c-2.79-2.29-6.02-4.64-9.18-4.96
		c-9.62-0.99-19.35-2.01-28.95-1.11c-9.03,0.84-17.27,5.84-23.47,15.36c-10.42,16.04-5.98,39.06,9.15,45.34
		c5.59,2.33,11.68,3.31,17.56,3.54c13.21,0.51,26.42,0.16,40,0.16c-0.69,3.83-1.37,6.89-1.79,10c-2.6,18.99,8.16,33.22,22.33,29.66
		c11.54-2.91,19.55-11.45,23.88-26.01c4.07-13.66,4.09-13.81,15.03-13.59c8.79,0.17,17.27-0.24,22.8-12.07
		c4.17,8.81,9.69,13.35,17.27,13.57c7.49,0.23,13.46-4.2,18.73-10.04c7.74,12.95,18.17,7.6,27.34,8.13
		c9.41,0.53,19.36,2.72,27.78-7.68c-0.39,3.15-0.65,5.23-0.91,7.26c12.33,3.26,22.59-0.88,31.55-12.03
		c5.97-7.43,12.42-14.14,18.66-21.16c-0.95,7.2-2.81,13.39-4.16,19.77c-1.9,8.94,0.96,13.94,7.96,14.13
		c7.28,0.22,14.55,0,21.84,0.08c8.33,0.08,16.79,1.03,22.27-6.29c4.14,2.52,7.17,5.85,10.29,5.99c13.98,0.57,27.98,0.53,41.98,0.13
		c7.78-0.23,12.62-5.77,13.95-14.38H589.94z M306.6,469.59c-5.57-9.31-2.49-20.96,6.68-24.72
		C310.97,453.39,308.85,461.25,306.6,469.59z M412.8,424.08c-1.32,5.78-4.37,4.64-7.11,3.99c-3.4-0.8-7.06-2.86-6.22-8.49
		c1.15-7.69,3.12-15.19,5.04-22.63c0.32-1.25,2.22-2.4,3.45-2.51c3.88-0.32,7.78-0.11,12.78-0.11
		C417.81,405.15,414.99,414.49,412.8,424.08z"/>
	<path class="st1" d="M216.1,372.43c-8.99,33.61-28.18,52.87-52.78,64.24c-18.78,8.68-38.18,7.23-58.13,6.99
		c0.44-2.34,0.7-4.4,1.22-6.36c7.59-28.62,15.27-57.19,22.72-85.88c1.15-4.45,2.65-6.31,6.31-6.11c6.85,0.37,13.72,0.1,21.44,0.1
		c-7.43,27.96-14.55,54.8-22.1,83.26c4.54-0.87,8.4-0.99,11.96-2.43c21.58-8.67,36.18-26.84,41.64-56.34
		c2.86-15.49-0.78-35.63-19.09-36.21c-22.73-0.74-45.49-0.69-68.23-0.96c-2.17-0.03-4.35-0.01-7.61-0.01
		c3.65-8.05,6.66-15.04,9.98-21.77c0.61-1.23,2.48-1.91,3.77-1.92c24.44-0.08,48.87-0.15,73.31,0.13c3.84,0.05,7.74,1.41,11.49,2.78
		C214.4,320.12,223.86,343.41,216.1,372.43z"/>
	<path class="st0" d="M420.72,394.32c-2.92,10.83-5.73,20.17-7.93,29.75c-1.32,5.78-4.37,4.64-7.11,3.99
		c-3.4-0.8-7.06-2.86-6.22-8.49c1.15-7.69,3.12-15.19,5.04-22.63c0.32-1.25,2.22-2.4,3.45-2.51
		C411.82,394.12,415.73,394.32,420.72,394.32z"/>
	<path class="st0" d="M313.27,444.87c-2.31,8.53-4.42,16.39-6.68,24.72C301.02,460.28,304.1,448.63,313.27,444.87z"/>
</g>
</svg>
