<?xml version="1.0" encoding="utf-8"?>
<!-- Generator: Adobe Illustrator 27.9.0, SVG Export Plug-In . SVG Version: 6.00 Build 0)  -->
<svg version="1.1" xmlns="http://www.w3.org/2000/svg" xmlns:xlink="http://www.w3.org/1999/xlink" x="0px" y="0px"
	 viewBox="0 0 2000 2000" style="enable-background:new 0 0 2000 2000;" xml:space="preserve">
<style type="text/css">
	.st0{fill:none;}
	.st1{fill:#111922;}
	.st2{display:none;}
	.st3{display:inline;fill:#CE2029;}
	.st4{display:inline;}
	.st5{fill:#EAE8E5;}
	.st6{fill:#CE2029;}
	.st7{fill:#E7E648;}
	.st8{fill:#111922;stroke:url(#Unnamed_Pattern);stroke-width:1.0113;stroke-miterlimit:10;}
	.st9{display:inline;fill:#EAE8E5;}
	.st10{fill:#00A86A;}
	.st11{fill:none;stroke:#00A86A;stroke-width:40;stroke-miterlimit:10;}
</style>
<pattern  width="1342.96" height="455.55" patternUnits="userSpaceOnUse" id="Unnamed_Pattern" viewBox="0 -455.55 1342.96 455.55" style="overflow:visible;">
	<g>
		<rect x="0" y="-455.55" class="st0" width="1342.96" height="455.55"/>
		<g>
			<path class="st1" d="M217.8-455.55h-85.83l-18.68,312.2l-1.75,43.33h-2.92l-2.34-43.33l-21.02-312.2H0v446h55.47L44.38-319.84
				l-2.34-45.88l2.92-0.64l5.26,46.51L82.33-9.56h54.89l30.95-310.28l4.67-46.51l2.34,0.64l-1.75,45.88L162.33-9.56h55.47V-455.55z"
				/>
			<path class="st1" d="M353.26-455.55H242.32v446h116.2V-61.8h-57.22V-205.8h48.46v-52.24h-48.46v-145.27h51.97V-455.55z"/>
			<path class="st1" d="M440.26-455.55h-58.97v446h58.97V-455.55z"/>
			<path class="st1" d="M469.45-455.55v446h110.36V-61.8h-51.38v-393.75H469.45z"/>
			<path class="st1" d="M599.66-455.55v446h110.36V-61.8h-51.38v-393.75H599.66z"/>
			<path class="st1" d="M840.81-455.55H729.86v446h116.2V-61.8h-57.22V-205.8h48.46v-52.24h-48.46v-145.27h51.97V-455.55z"/>
			<path class="st1" d="M1024.15-455.55h-58.97v370.18c0,11.9-1.75,20.39-5.26,25.49c-3.5,5.1-8.96,7.65-16.35,7.65
				c-7.4,0-12.75-2.55-16.06-7.65c-3.31-5.1-4.96-13.59-4.96-25.49v-370.18h-58.97v361.89c0,31.44,7.3,54.9,21.9,70.4
				C900.07-7.75,919.63,0,944.16,0s43.98-7.64,58.39-22.94c14.4-15.29,21.6-38.86,21.6-70.72V-455.55z"/>
			<path class="st1" d="M1047.5-455.55v446h58.97v-184.77h14.6c8.17,0,14.21,2.55,18.1,7.64c3.89,5.1,5.84,13.6,5.84,25.49v87.93
				c0,13.17,0.38,24.11,1.17,32.81c0.78,8.71,1.94,19.01,3.5,30.9h58.97v-2.55c-1.17-5.51-2.04-10.51-2.63-14.97
				s-0.98-9.02-1.17-13.7c-0.2-4.67-0.39-9.66-0.58-14.97c-0.2-5.31-0.29-11.15-0.29-17.52v-71.36c0-19.53-3.5-35.68-10.51-48.42
				c-7.01-12.74-17.13-21.44-30.36-26.12v-2.55c13.23-4.67,23.36-13.38,30.36-26.12c7.01-12.74,10.51-28.67,10.51-47.79v-62.44
				c0-32.28-7.4-56.6-22.19-72.95c-14.8-16.35-35.03-24.53-60.73-24.53H1047.5z M1106.48-403.31h14.6c8.17,0,14.21,2.45,18.1,7.33
				c3.89,4.89,5.84,13.28,5.84,25.17v91.75c0,11.9-1.95,20.39-5.84,25.49c-3.9,5.1-9.93,7.65-18.1,7.65h-14.6V-403.31z"/>
			<path class="st1" d="M1337.7-455.55h-110.94v446h116.2V-61.8h-57.22V-205.8h48.46v-52.24h-48.46v-145.27h51.97V-455.55z"/>
		</g>
	</g>
</pattern>
<g id="Layer_1" class="st2">
	<path class="st3" d="M1713.5,1841.9h-1427c-21.42,0-38.78-17.36-38.78-38.78V196.88c0-21.42,17.36-38.78,38.78-38.78h1427
		c21.42,0,38.78,17.36,38.78,38.78v1606.24C1752.29,1824.54,1734.92,1841.9,1713.5,1841.9z"/>
	<g class="st4">
		<g>
			<path class="st5" d="M926.64,691.7v4.02l141.99,472.01H827.25l-71-286.96l-11.83-127.39h-9.47l-11.83,127.39l-66.26,286.96
				H417.83l132.53-474.69v-4.02L417.83,229.07h239.02l66.26,274.89l11.83,128.73h9.47l11.83-128.73l71-274.89h241.39L926.64,691.7z"
				/>
			<path class="st5" d="M1478.04,1057.77h104.13v109.95h-447.28v-109.95h104.13v-635.6h-85.2v-84.48c50.47,0,85.2-9.38,104.13-28.16
				c18.93-18.77,28.4-45.59,28.4-80.46h191.69V1057.77z"/>
		</g>
		<g>
			<path class="st5" d="M610.76,1281.55h-58.78v477.78h-76.12v-477.78h-58.03v-63.39h192.93V1281.55z"/>
			<path class="st5" d="M719.28,1759.33h-76.12v-541.17h76.12V1759.33z"/>
			<path class="st5" d="M875.28,1279.23c-4.03-6.19-10.3-9.28-18.84-9.28c-8.04,0-14.07,3.09-18.09,9.28
				c-4.03,6.18-6.03,16.23-6.03,30.15v357.95c0,14.44,2,24.74,6.03,30.92c4.02,6.19,10.04,9.28,18.09,9.28
				c8.54,0,14.81-3.09,18.84-9.28c4.02-6.18,6.03-16.49,6.03-30.92v-105.14h76.12v95.09c0,38.15-9.04,66.62-27.13,85.43
				c-18.09,18.81-42.46,28.22-73.1,28.22c-30.65,0-55.14-9.41-73.48-28.22c-18.35-18.81-27.51-47.28-27.51-85.43v-337.85
				c0-38.66,9.04-67.13,27.13-85.43c18.09-18.29,42.45-27.45,73.1-27.45c31.15,0,55.77,9.16,73.86,27.45
				c18.09,18.3,27.13,46.77,27.13,85.43v95.09h-76.12v-105.14C881.31,1295.47,879.3,1285.42,875.28,1279.23z"/>
			<path class="st5" d="M1133.77,1441.58v1.55l64.06,316.2h-76.87l-42.96-244.3h-2.26l-11.3,32.47v211.83h-76.12v-541.17h76.12
				v143.02l-7.54,102.05l3.01,0.78l58.03-245.85h76.12L1133.77,1441.58z"/>
			<path class="st5" d="M1364.37,1281.55h-67.07v176.27h62.55v63.39h-62.55v174.72h73.86v63.39h-149.97v-541.17h143.19V1281.55z"/>
			<path class="st5" d="M1582.17,1281.55h-58.78v477.78h-76.12v-477.78h-58.03v-63.39h192.93V1281.55z"/>
		</g>
	</g>
	<g class="st4">
		<path class="st6" d="M-330.76,1488.74h-1428.07c-21.44,0-38.81-17.38-38.81-38.81V-157.51c0-21.44,17.38-38.81,38.81-38.81
			h1428.07c21.44,0,38.81,17.38,38.81,38.81v1607.44C-291.95,1471.37-309.33,1488.74-330.76,1488.74z"/>
		<g>
			<path class="st5" d="M-1126.08,348.67v4.03l142.1,472.36h-241.57l-71.05-287.18l-11.84-127.48h-9.47l-11.84,127.48l-66.31,287.18
				h-239.2l132.63-475.05v-4.02l-132.63-460.29h239.2l66.31,275.1l11.84,128.83h9.47l11.84-128.83l71.05-275.1h241.57
				L-1126.08,348.67z"/>
			<path class="st5" d="M-955.81,101.17c0-73.57,21.63-127.87,64.94-162.91c43.28-35.02,102.65-52.55,178.11-52.55
				c77.93,0,138.83,18.62,182.75,55.84c43.89,37.24,65.87,94.82,65.87,172.76v94.59c0,27.16-4.35,51.69-12.99,73.57
				c-8.67,21.9-20.41,42.04-35.25,60.44c-14.84,18.39-31.54,35.27-50.1,50.58c-18.55,15.33-38.35,30.44-59.37,45.32
				c-18.55,13.14-36.82,26.5-54.73,40.07c-17.95,13.59-34.03,28.7-48.24,45.32c-14.23,16.65-25.68,34.38-34.32,53.21
				c-8.67,18.84-12.99,40.95-12.99,66.34v73.58h307.99v107.73h-495.38V650.33c0-37.65,5.57-70.72,16.7-99.19
				c11.13-28.45,25.66-53.86,43.6-76.2c17.92-22.33,38.03-42.47,60.3-60.43c22.26-17.94,43.89-34.36,64.94-49.27
				c33.4-24.51,62.15-50.13,86.27-76.86c24.12-26.71,36.18-56.7,36.18-89.99V76.2c0-31.53-4.96-53.21-14.84-65.03
				c-9.91-11.82-24.76-17.74-44.53-17.74c-19.8,0-34.32,5.48-43.6,16.42c-9.28,10.97-13.92,30.88-13.92,59.78v169.48h-187.39V101.17
				z"/>
			<g>
				<g>
					<path class="st5" d="M-1466.32,916.97h-51.41v478.14h-66.57V916.97h-50.75v-63.44h168.73V916.97z"/>
					<path class="st5" d="M-1371.42,1395.11h-66.57V853.53h66.57V1395.11z"/>
					<path class="st5" d="M-1234.98,914.65c-3.52-6.19-9.01-9.29-16.48-9.29c-7.03,0-12.31,3.1-15.82,9.29
						c-3.52,6.19-5.27,16.25-5.27,30.17v358.21c0,14.45,1.75,24.76,5.27,30.95c3.51,6.19,8.78,9.29,15.82,9.29
						c7.47,0,12.96-3.1,16.48-9.29c3.51-6.19,5.27-16.5,5.27-30.95v-105.22h66.57v95.16c0,38.18-7.91,66.67-23.73,85.49
						c-15.82,18.82-37.14,28.24-63.93,28.24c-26.81,0-48.23-9.42-64.26-28.24c-16.05-18.82-24.06-47.32-24.06-85.49v-338.1
						c0-38.68,7.91-67.18,23.73-85.49c15.82-18.3,37.13-27.47,63.93-27.47c27.24,0,48.77,9.16,64.59,27.47
						c15.82,18.31,23.73,46.81,23.73,85.49v95.16h-66.57V944.83C-1229.71,930.9-1231.47,920.84-1234.98,914.65z"/>
					<path class="st5" d="M-1008.92,1077.13v1.55l56.02,316.44h-67.23l-37.57-244.48h-1.98l-9.89,32.49v211.99h-66.57V853.53h66.57
						v143.13l-6.59,102.13l2.64,0.78l50.75-246.03h66.57L-1008.92,1077.13z"/>
					<path class="st5" d="M-807.24,916.97h-58.66v176.4h54.71v63.44h-54.71v174.85h64.59v63.44h-131.16V853.53h125.23V916.97z"/>
					<path class="st5" d="M-616.76,916.97h-51.41v478.14h-66.57V916.97h-50.75v-63.44h168.73V916.97z"/>
				</g>
				<path class="st5" d="M-514.55,1029.29v-79.95c0-14.58-1.56-24.63-4.68-30.17c-3.12-5.53-7.6-8.3-13.45-8.3
					c-6.24,0-10.92,2.77-14.03,8.3c-3.12,5.54-4.68,15.59-4.68,30.17v50.53c0,18.1,3.89,34.95,11.69,50.53
					c7.79,15.59,16.75,30.68,26.89,45.25c7.02,9.56,13.93,19.49,20.75,29.79c6.81,10.31,13.05,21.38,18.71,33.19
					c5.65,11.82,10.23,24.64,13.74,38.47c3.51,13.83,5.26,29.3,5.26,46.39v45.25c0,37.22-7.01,64.99-21.05,83.34
					c-14.03,18.35-33.32,27.53-57.87,27.53c-24.55,0-43.75-9.05-57.58-27.15c-13.84-18.1-20.75-46.01-20.75-83.72v-70.14h59.04
					v79.95c0,15.08,1.65,25.4,4.97,30.92c3.31,5.54,8.28,8.3,14.91,8.3c6.23,0,11.01-2.76,14.32-8.3
					c3.31-5.53,4.97-15.84,4.97-30.92v-50.53c0-10.05-1.37-19.61-4.09-28.66c-2.73-9.05-6.34-18.1-10.81-27.15
					c-4.48-9.05-9.55-17.84-15.2-26.4c-5.65-8.54-11.6-16.84-17.83-24.89c-5.85-9.05-11.79-18.35-17.83-27.91
					c-6.05-9.55-11.4-19.73-16.08-30.55c-4.68-10.81-8.39-22.5-11.11-35.07c-2.73-12.56-4.09-26.65-4.09-42.24v-46.01
					c0-37.2,6.91-64.86,20.75-82.97c13.83-18.1,32.83-27.15,57-27.15c24.16,0,43.06,9.05,56.71,27.15
					c13.64,18.1,20.46,45.76,20.46,82.97v70.14H-514.55z"/>
			</g>
		</g>
	</g>
</g>
<g id="Layer_2" class="st2">
	<path class="st3" d="M1713.5,1841.9h-1427c-21.42,0-38.78-17.36-38.78-38.78V196.88c0-21.42,17.36-38.78,38.78-38.78h1427
		c21.42,0,38.78,17.36,38.78,38.78v1606.24C1752.29,1824.54,1734.92,1841.9,1713.5,1841.9z"/>
	<g class="st4">
		<path class="st5" d="M927.03,698.39v4.08l142.1,478.83H827.56l-71.05-291.11l-11.84-129.23h-9.47l-11.84,129.23l-66.31,291.11
			h-239.2l132.63-481.56v-4.08L417.83,229.07h239.2l66.31,278.87l11.84,130.59h9.47l11.84-130.59l71.05-278.87h241.57L927.03,698.39
			z"/>
		<path class="st5" d="M1097.29,447.49c0-74.58,21.63-129.62,64.94-165.14c43.28-35.5,102.65-53.27,178.11-53.27
			c77.93,0,138.83,18.88,182.75,56.6c43.89,37.75,65.87,96.12,65.87,175.13v95.89c0,27.53-4.35,52.4-12.99,74.58
			c-8.67,22.21-20.41,42.62-35.25,61.27c-14.84,18.64-31.54,35.75-50.09,51.27c-18.55,15.54-38.35,30.86-59.37,45.95
			c-18.55,13.32-36.82,26.87-54.73,40.62c-17.95,13.77-34.03,29.09-48.24,45.94c-14.23,16.88-25.68,34.86-34.32,53.94
			c-8.67,19.1-12.99,41.51-12.99,67.25v74.58h307.99v109.2h-495.38v-177.13c0-38.16,5.57-71.69,16.7-100.55
			c11.13-28.84,25.66-54.6,43.6-77.25c17.92-22.64,38.03-43.05,60.3-61.26c22.26-18.19,43.89-34.83,64.94-49.94
			c33.4-24.85,62.15-50.82,86.27-77.91c24.12-27.07,36.18-57.48,36.18-91.23V422.18c0-31.96-4.96-53.94-14.84-65.92
			c-9.91-11.99-24.76-17.98-44.53-17.98c-19.8,0-34.32,5.56-43.6,16.65c-9.28,11.12-13.92,31.3-13.92,60.6v171.8h-187.39V447.49z"/>
		<g>
			<g>
				<path class="st5" d="M586.78,1274.47h-51.41v484.69H468.8v-484.69h-50.75v-64.31h168.73V1274.47z"/>
				<path class="st5" d="M681.68,1759.16h-66.57v-549h66.57V1759.16z"/>
				<path class="st5" d="M818.12,1272.12c-3.52-6.28-9.01-9.41-16.48-9.41c-7.03,0-12.31,3.14-15.82,9.41
					c-3.52,6.27-5.27,16.47-5.27,30.59v363.12c0,14.64,1.75,25.1,5.27,31.37c3.51,6.28,8.78,9.41,15.82,9.41
					c7.47,0,12.96-3.14,16.48-9.41c3.51-6.27,5.27-16.73,5.27-31.37v-106.66h66.57v96.47c0,38.7-7.91,67.58-23.73,86.66
					c-15.82,19.08-37.14,28.63-63.93,28.63c-26.81,0-48.23-9.55-64.26-28.63c-16.04-19.08-24.06-47.96-24.06-86.66V1312.9
					c0-39.21,7.91-68.1,23.73-86.66c15.82-18.56,37.13-27.84,63.93-27.84c27.24,0,48.77,9.29,64.59,27.84
					c15.82,18.57,23.73,47.45,23.73,86.66v96.47h-66.57v-106.66C823.39,1288.59,821.63,1278.39,818.12,1272.12z"/>
				<path class="st5" d="M1044.18,1436.82v1.57l56.02,320.77h-67.23l-37.57-247.83h-1.98l-9.89,32.94v214.9h-66.57v-549h66.57
					v145.09l-6.59,103.52l2.64,0.79l50.75-249.4h66.57L1044.18,1436.82z"/>
				<path class="st5" d="M1245.86,1274.47h-58.66v178.82h54.71v64.31h-54.71v177.25h64.59v64.31h-131.16v-549h125.23V1274.47z"/>
				<path class="st5" d="M1436.34,1274.47h-51.41v484.69h-66.57v-484.69h-50.75v-64.31h168.73V1274.47z"/>
			</g>
			<path class="st5" d="M1538.56,1388.33v-81.04c0-14.78-1.56-24.97-4.68-30.58c-3.12-5.6-7.6-8.41-13.45-8.41
				c-6.24,0-10.92,2.81-14.03,8.41c-3.12,5.61-4.68,15.8-4.68,30.58v51.22c0,18.35,3.89,35.43,11.69,51.22
				c7.79,15.81,16.75,31.1,26.89,45.87c7.02,9.69,13.93,19.76,20.75,30.2c6.81,10.45,13.05,21.67,18.71,33.64
				c5.65,11.98,10.23,24.98,13.74,38.99c3.51,14.02,5.26,29.7,5.26,47.02v45.87c0,37.73-7.01,65.88-21.05,84.48
				c-14.03,18.6-33.32,27.91-57.87,27.91s-43.75-9.17-57.58-27.52c-13.84-18.35-20.75-46.64-20.75-84.87v-71.11h59.04v81.04
				c0,15.29,1.65,25.74,4.97,31.35c3.31,5.61,8.28,8.41,14.91,8.41c6.23,0,11.01-2.8,14.32-8.41c3.31-5.6,4.97-16.06,4.97-31.35
				v-51.22c0-10.19-1.37-19.88-4.09-29.05c-2.73-9.17-6.34-18.35-10.81-27.52c-4.48-9.17-9.55-18.09-15.2-26.76
				c-5.65-8.66-11.6-17.07-17.83-25.23c-5.85-9.17-11.79-18.6-17.83-28.29c-6.05-9.68-11.4-20-16.08-30.97
				c-4.68-10.95-8.39-22.8-11.11-35.55c-2.73-12.74-4.09-27.01-4.09-42.82v-46.64c0-37.71,6.91-65.75,20.75-84.1
				c13.83-18.35,32.83-27.52,57-27.52c24.16,0,43.06,9.17,56.71,27.52c13.64,18.35,20.46,46.39,20.46,84.1v71.11H1538.56z"/>
		</g>
	</g>
	<path class="st3" d="M1713.5,1841.9h-1427c-21.42,0-38.78-17.36-38.78-38.78V196.88c0-21.42,17.36-38.78,38.78-38.78h1427
		c21.42,0,38.78,17.36,38.78,38.78v1606.24C1752.29,1824.54,1734.92,1841.9,1713.5,1841.9z"/>
	<g class="st4">
		<path class="st5" d="M927.03,698.39v4.08l142.1,478.83H827.56l-71.05-291.11l-11.84-129.23h-9.47l-11.84,129.23l-66.31,291.11
			h-239.2l132.63-481.56v-4.08L417.83,229.07h239.2l66.31,278.87l11.84,130.59h9.47l11.84-130.59l71.05-278.87h241.57L927.03,698.39
			z"/>
		<path class="st5" d="M1097.29,447.49c0-74.58,21.63-129.62,64.94-165.14c43.28-35.5,102.65-53.27,178.11-53.27
			c77.93,0,138.83,18.88,182.75,56.6c43.89,37.75,65.87,96.12,65.87,175.13v95.89c0,27.53-4.35,52.4-12.99,74.58
			c-8.67,22.21-20.41,42.62-35.25,61.27c-14.84,18.64-31.54,35.75-50.09,51.27c-18.55,15.54-38.35,30.86-59.37,45.95
			c-18.55,13.32-36.82,26.87-54.73,40.62c-17.95,13.77-34.03,29.09-48.24,45.94c-14.23,16.88-25.68,34.86-34.32,53.94
			c-8.67,19.1-12.99,41.51-12.99,67.25v74.58h307.99v109.2h-495.38v-177.13c0-38.16,5.57-71.69,16.7-100.55
			c11.13-28.84,25.66-54.6,43.6-77.25c17.92-22.64,38.03-43.05,60.3-61.26c22.26-18.19,43.89-34.83,64.94-49.94
			c33.4-24.85,62.15-50.82,86.27-77.91c24.12-27.07,36.18-57.48,36.18-91.23V422.18c0-31.96-4.96-53.94-14.84-65.92
			c-9.91-11.99-24.76-17.98-44.53-17.98c-19.8,0-34.32,5.56-43.6,16.65c-9.28,11.12-13.92,31.3-13.92,60.6v171.8h-187.39V447.49z"/>
		<g>
			<g>
				<path class="st5" d="M586.78,1274.47h-51.41v484.69H468.8v-484.69h-50.75v-64.31h168.73V1274.47z"/>
				<path class="st5" d="M681.68,1759.16h-66.57v-549h66.57V1759.16z"/>
				<path class="st5" d="M818.12,1272.12c-3.52-6.28-9.01-9.41-16.48-9.41c-7.03,0-12.31,3.14-15.82,9.41
					c-3.52,6.27-5.27,16.47-5.27,30.59v363.12c0,14.64,1.75,25.1,5.27,31.37c3.51,6.28,8.78,9.41,15.82,9.41
					c7.47,0,12.96-3.14,16.48-9.41c3.51-6.27,5.27-16.73,5.27-31.37v-106.66h66.57v96.47c0,38.7-7.91,67.58-23.73,86.66
					c-15.82,19.08-37.14,28.63-63.93,28.63c-26.81,0-48.23-9.55-64.26-28.63c-16.04-19.08-24.06-47.96-24.06-86.66V1312.9
					c0-39.21,7.91-68.1,23.73-86.66c15.82-18.56,37.13-27.84,63.93-27.84c27.24,0,48.77,9.29,64.59,27.84
					c15.82,18.57,23.73,47.45,23.73,86.66v96.47h-66.57v-106.66C823.39,1288.59,821.63,1278.39,818.12,1272.12z"/>
				<path class="st5" d="M1044.18,1436.82v1.57l56.02,320.77h-67.23l-37.57-247.83h-1.98l-9.89,32.94v214.9h-66.57v-549h66.57
					v145.09l-6.59,103.52l2.64,0.79l50.75-249.4h66.57L1044.18,1436.82z"/>
				<path class="st5" d="M1245.86,1274.47h-58.66v178.82h54.71v64.31h-54.71v177.25h64.59v64.31h-131.16v-549h125.23V1274.47z"/>
				<path class="st5" d="M1436.34,1274.47h-51.41v484.69h-66.57v-484.69h-50.75v-64.31h168.73V1274.47z"/>
			</g>
			<path class="st5" d="M1538.56,1388.33v-81.04c0-14.78-1.56-24.97-4.68-30.58c-3.12-5.6-7.6-8.41-13.45-8.41
				c-6.24,0-10.92,2.81-14.03,8.41c-3.12,5.61-4.68,15.8-4.68,30.58v51.22c0,18.35,3.89,35.43,11.69,51.22
				c7.79,15.81,16.75,31.1,26.89,45.87c7.02,9.69,13.93,19.76,20.75,30.2c6.81,10.45,13.05,21.67,18.71,33.64
				c5.65,11.98,10.23,24.98,13.74,38.99c3.51,14.02,5.26,29.7,5.26,47.02v45.87c0,37.73-7.01,65.88-21.05,84.48
				c-14.03,18.6-33.32,27.91-57.87,27.91s-43.75-9.17-57.58-27.52c-13.84-18.35-20.75-46.64-20.75-84.87v-71.11h59.04v81.04
				c0,15.29,1.65,25.74,4.97,31.35c3.31,5.61,8.28,8.41,14.91,8.41c6.23,0,11.01-2.8,14.32-8.41c3.31-5.6,4.97-16.06,4.97-31.35
				v-51.22c0-10.19-1.37-19.88-4.09-29.05c-2.73-9.17-6.34-18.35-10.81-27.52c-4.48-9.17-9.55-18.09-15.2-26.76
				c-5.65-8.66-11.6-17.07-17.83-25.23c-5.85-9.17-11.79-18.6-17.83-28.29c-6.05-9.68-11.4-20-16.08-30.97
				c-4.68-10.95-8.39-22.8-11.11-35.55c-2.73-12.74-4.09-27.01-4.09-42.82v-46.64c0-37.71,6.91-65.75,20.75-84.1
				c13.83-18.35,32.83-27.52,57-27.52c24.16,0,43.06,9.17,56.71,27.52c13.64,18.35,20.46,46.39,20.46,84.1v71.11H1538.56z"/>
		</g>
	</g>
</g>
<g id="Layer_3" class="st2">
	<g class="st4">
		<path class="st6" d="M1713.5,1841.9h-1427c-21.42,0-38.78-17.36-38.78-38.78V196.88c0-21.42,17.36-38.78,38.78-38.78h1427
			c21.42,0,38.78,17.36,38.78,38.78v1606.24C1752.29,1824.54,1734.92,1841.9,1713.5,1841.9z"/>
		<g>
			<path class="st5" d="M918,699.79v4.06l143.37,476.6H817.63L745.95,890.7L734,762.08h-9.56L712.49,890.7l-66.91,289.75H404.24
				l133.82-479.31v-4.06L404.24,232.67h241.35l66.91,277.56l11.95,129.98H734l11.95-129.98l71.69-277.56h243.74L918,699.79z"/>
			<g>
				<g>
					<path class="st5" d="M574.7,1273.19h-51.87v482.43h-67.17v-482.43h-51.21v-64.01H574.7V1273.19z"/>
					<path class="st5" d="M670.46,1755.62h-67.17v-546.44h67.17V1755.62z"/>
					<path class="st5" d="M808.11,1270.85c-3.55-6.25-9.09-9.37-16.63-9.37c-7.1,0-12.42,3.12-15.96,9.37
						c-3.55,6.24-5.32,16.39-5.32,30.44v361.43c0,14.58,1.77,24.98,5.32,31.22c3.54,6.25,8.86,9.37,15.96,9.37
						c7.53,0,13.07-3.12,16.63-9.37c3.54-6.24,5.32-16.65,5.32-31.22v-106.16h67.17v96.02c0,38.52-7.98,67.27-23.94,86.26
						c-15.96,18.99-37.47,28.49-64.51,28.49c-27.05,0-48.66-9.5-64.84-28.49c-16.19-18.99-24.27-47.74-24.27-86.26v-341.13
						c0-39.03,7.98-67.78,23.94-86.26c15.96-18.47,37.46-27.71,64.51-27.71c27.48,0,49.21,9.24,65.17,27.71
						c15.96,18.48,23.94,47.23,23.94,86.26v96.02h-67.17V1301.3C813.43,1287.24,811.65,1277.09,808.11,1270.85z"/>
					<path class="st5" d="M1036.21,1434.78v1.56l56.53,319.28h-67.83l-37.91-246.68h-2l-9.98,32.79v213.89h-67.17v-546.44h67.17
						v144.42l-6.65,103.04l2.66,0.78l51.21-248.24h67.17L1036.21,1434.78z"/>
					<path class="st5" d="M1239.69,1273.19h-59.19v177.98h55.2v64.01h-55.2v176.42h65.17v64.01h-132.34v-546.44h126.35V1273.19z"/>
					<path class="st5" d="M1431.88,1273.19h-51.87v482.43h-67.17v-482.43h-51.21v-64.01h170.24V1273.19z"/>
				</g>
				<path class="st5" d="M1535.01,1386.52v-80.66c0-14.71-1.58-24.85-4.72-30.44c-3.15-5.58-7.67-8.37-13.57-8.37
					c-6.29,0-11.01,2.79-14.16,8.37c-3.15,5.59-4.72,15.73-4.72,30.44v50.99c0,18.26,3.93,35.27,11.8,50.99
					c7.86,15.73,16.9,30.95,27.13,45.66c7.08,9.64,14.05,19.67,20.94,30.06c6.88,10.4,13.17,21.57,18.87,33.48
					c5.7,11.93,10.32,24.86,13.86,38.81c3.54,13.96,5.31,29.56,5.31,46.8v45.66c0,37.55-7.08,65.58-21.23,84.09
					c-14.16,18.51-33.62,27.78-58.39,27.78s-44.15-9.13-58.1-27.4c-13.96-18.26-20.94-46.42-20.94-84.47v-70.77h59.57v80.66
					c0,15.22,1.67,25.62,5.01,31.2c3.34,5.59,8.35,8.37,15.04,8.37c6.29,0,11.11-2.78,14.45-8.37c3.34-5.58,5.01-15.98,5.01-31.2
					v-50.99c0-10.14-1.38-19.79-4.13-28.92c-2.76-9.13-6.4-18.26-10.91-27.4c-4.53-9.13-9.64-18-15.34-26.63
					c-5.7-8.62-11.7-16.99-17.99-25.11c-5.9-9.13-11.9-18.51-17.99-28.16c-6.1-9.63-11.5-19.9-16.22-30.82
					c-4.72-10.9-8.46-22.7-11.21-35.38c-2.76-12.68-4.13-26.88-4.13-42.62v-46.42c0-37.54,6.98-65.44,20.94-83.71
					c13.95-18.26,33.12-27.4,57.51-27.4c24.38,0,43.44,9.13,57.21,27.4c13.76,18.26,20.64,46.17,20.64,83.71v70.77H1535.01z"/>
			</g>
			<path class="st5" d="M1595.76,562.45c0,32.9-6.78,59.72-20.33,80.49c-13.55,20.77-37.75,35.93-72.6,45.44v5.19
				c34.85,9.53,59.05,23.82,72.6,42.85c13.55,19.05,20.33,45.01,20.33,77.9V990.9c0,63.19-22.26,110.58-66.79,142.17
				c-44.53,31.59-108.11,47.39-190.69,47.39c-82.61,0-146.5-16.03-191.66-48.04c-45.19-32.01-67.76-79.2-67.76-141.52V816.92h195.53
				v190.85c0,24.24,4.84,41.35,14.52,51.29c9.68,9.96,25.47,14.93,47.43,14.93c21.93,0,38.05-4.97,48.4-14.93
				c10.32-9.94,15.49-27.04,15.49-51.29V829.91c0-32.89-5.81-55.18-17.42-66.86c-11.62-11.69-34.21-17.53-67.76-17.53h-44.53V639.05
				h44.53c32.25,0,54.51-5.85,66.79-17.53c12.25-11.68,18.39-33.53,18.39-65.56V405.35c0-24.23-5.17-41.33-15.49-51.29
				c-10.34-9.94-26.47-14.93-48.4-14.93c-21.96,0-37.75,4.99-47.43,14.93c-9.68,9.96-14.52,27.06-14.52,51.29v163.59h-195.53V422.23
				c0-62.32,22.57-109.48,67.76-141.52c45.16-32.01,109.05-48.04,191.66-48.04c82.58,0,146.17,15.8,190.69,47.39
				c44.53,31.6,66.79,78.99,66.79,142.17V562.45z"/>
		</g>
	</g>
</g>
<g id="Layer_4" class="st2">
	<g class="st4">
		<path class="st7" d="M1719.41,1848.87H280.59c-21.6,0-39.1-17.51-39.1-39.1V190.23c0-21.6,17.51-39.1,39.1-39.1h1438.82
			c21.6,0,39.1,17.51,39.1,39.1v1619.54C1758.51,1831.36,1741.01,1848.87,1719.41,1848.87z"/>
		<g>
			<path class="st1" d="M603,1473.08c0,53.53-12.84,93.86-38.49,120.97c-25.67,27.11-61.59,40.69-107.78,40.69
				c-46.93,0-83.22-13.58-108.88-40.69c-25.67-27.12-38.49-67.45-38.49-120.97v-480.6c0-52.79,12.82-92.74,38.49-119.87
				c25.66-27.11,61.95-40.69,108.88-40.69c46.91,0,83.03,13.39,108.33,40.14C590.36,898.84,603,938.98,603,992.49V1473.08z
				 M483.13,934.75c-5.88-8.42-15.04-12.65-27.49-12.65c-12.48,0-21.44,4.23-26.94,12.65c-5.5,8.44-8.25,22.92-8.25,43.44v509.19
				c0,20.53,2.75,35.19,8.25,43.99c5.5,8.8,14.47,13.2,26.94,13.2c12.46,0,21.62-4.4,27.49-13.2c5.86-8.8,8.8-23.46,8.8-43.99
				V978.19C491.93,957.67,488.99,943.19,483.13,934.75z"/>
			<path class="st1" d="M857.04,938.6h-97.88v256.25h83.58v90.18h-83.58v333.23H648.09V848.42h208.95V938.6z"/>
			<path class="st1" d="M1100.08,938.6h-97.88v256.25h83.58v90.18h-83.58v333.23H891.12V848.42h208.95V938.6z"/>
			<path class="st1" d="M1272.73,848.42c48.39,0,86.5,14.13,114.37,42.34c27.85,28.24,41.79,70.21,41.79,125.92v107.77
				c0,32.99-6.6,60.49-19.8,82.48c-13.2,22-32.27,37.03-57.19,45.09v4.4c24.92,8.08,43.99,23.09,57.19,45.09
				c13.2,22,19.8,49.87,19.8,83.58v123.17c0,11,0.17,21.09,0.55,30.24c0.36,9.18,0.72,17.79,1.1,25.84
				c0.36,8.08,1.1,15.95,2.2,23.65c1.1,7.7,2.75,16.32,4.95,25.84v4.4h-111.08c-2.94-20.52-5.14-38.3-6.6-53.34
				c-1.48-15.02-2.2-33.91-2.2-56.64v-151.77c0-20.52-3.68-35.19-11-43.99c-7.34-8.8-18.7-13.2-34.09-13.2h-27.49v318.93h-111.08
				V848.42H1272.73z M1245.24,1210.24h27.49c15.4,0,26.75-4.4,34.09-13.2c7.32-8.8,11-23.46,11-43.99V994.69
				c0-20.52-3.68-35-11-43.44c-7.34-8.42-18.7-12.65-34.09-12.65h-27.49V1210.24z"/>
			<path class="st1" d="M1680.73,938.6h-97.88v250.75h91.28v90.18h-91.28v248.55h107.78v90.18h-218.85V848.42h208.95V938.6z"/>
		</g>
		<g>
			<path class="st8" d="M532.13,822.37h-56.73l11.35-310.28l1.79-45.88l-2.39-0.64l-4.78,46.51l-31.65,310.28h-56.14l-32.85-310.28
				l-5.37-46.51l-2.99,0.64l2.39,45.88l11.35,310.28h-56.73v-446h87.19l21.5,312.2l2.39,43.33h2.99l1.79-43.33l19.11-312.2h87.79
				V822.37z"/>
			<path class="st8" d="M670.68,428.62h-53.15v145.27h49.57v52.24h-49.57v143.99h58.53v52.24H557.21v-446h113.47V428.62z"/>
			<path class="st8" d="M759.66,822.37h-60.32v-446h60.32V822.37z"/>
			<path class="st8" d="M849.83,376.37v393.75h52.55v52.24H789.52v-446H849.83z"/>
			<path class="st8" d="M983.01,376.37v393.75h52.55v52.24H922.69v-446H983.01z"/>
			<path class="st8" d="M1169.33,428.62h-53.15v145.27h49.57v52.24h-49.57v143.99h58.53v52.24h-118.84v-446h113.47V428.62z"/>
			<path class="st8" d="M1356.85,738.27c0,31.86-7.37,55.43-22.1,70.72c-14.73,15.29-34.64,22.94-59.72,22.94
				c-25.08,0-45.09-7.75-60.02-23.26c-14.93-15.5-22.4-38.96-22.4-70.4V376.37h60.32v370.18c0,11.9,1.69,20.39,5.08,25.49
				c3.38,5.1,8.86,7.65,16.42,7.65c7.56,0,13.14-2.55,16.72-7.65c3.58-5.1,5.37-13.59,5.37-25.49V376.37h60.32V738.27z"/>
			<path class="st8" d="M1455.99,376.37c26.28,0,46.97,8.18,62.11,24.53c15.13,16.36,22.69,40.68,22.69,72.95v62.44
				c0,19.11-3.58,35.04-10.75,47.79c-7.17,12.74-17.52,21.45-31.06,26.12v2.55c13.53,4.68,23.89,13.38,31.06,26.12
				c7.17,12.74,10.75,28.89,10.75,48.42v71.36c0,6.37,0.09,12.22,0.3,17.52c0.2,5.32,0.39,10.3,0.6,14.97
				c0.2,4.68,0.6,9.24,1.19,13.7c0.6,4.46,1.49,9.46,2.69,14.97v2.55h-60.32c-1.6-11.89-2.79-22.19-3.58-30.9
				c-0.8-8.7-1.19-19.64-1.19-32.81v-87.93c0-11.89-2-20.39-5.97-25.49c-3.98-5.1-10.15-7.64-18.51-7.64h-14.93v184.77h-60.32v-446
				H1455.99z M1441.06,585.99h14.93c8.36,0,14.53-2.55,18.51-7.65c3.98-5.1,5.97-13.59,5.97-25.49v-91.75
				c0-11.89-2-20.28-5.97-25.17c-3.98-4.88-10.15-7.33-18.51-7.33h-14.93V585.99z"/>
			<path class="st8" d="M1677.55,428.62h-53.15v145.27h49.57v52.24h-49.57v143.99h58.53v52.24h-118.84v-446h113.47V428.62z"/>
		</g>
	</g>
	<g class="st4">
		<path class="st7" d="M-1957.19,1616.91l-672.26,34.97c-9.66,0.5-17.9-6.92-18.4-16.58l-36.09-693.76
			c-0.5-9.66,6.92-17.9,16.58-18.4l672.26-34.97c9.66-0.5,17.9,6.92,18.4,16.58l36.09,693.76
			C-1940.11,1608.17-1947.53,1616.41-1957.19,1616.91z"/>
		<g>
			<g>
				<path class="st1" d="M-2512.8,1198.59l-28.46,1.48l-1.9-146.2l-0.22-21.62l-1.21-0.24l-1.26,22l-8.29,146.73l-28.16,1.46
					l-24.07-145.05l-3.83-21.73l-1.48,0.38l2.32,21.51l13.28,145.61l-28.46,1.48l-10.91-209.72l43.74-2.28l18.42,146.24l2.26,20.31
					l1.5-0.08l-0.16-20.42l1.95-147.3l44.04-2.29L-2512.8,1198.59z"/>
				<path class="st1" d="M-2452.93,1009.82l-26.66,1.39l3.55,68.31l24.87-1.29l1.28,24.57l-24.87,1.29l3.52,67.71l29.36-1.53
					l1.28,24.57l-59.62,3.1l-10.91-209.72l56.92-2.96L-2452.93,1009.82z"/>
				<path class="st1" d="M-2398.66,1192.65l-30.26,1.57l-10.91-209.72l30.26-1.57L-2398.66,1192.65z"/>
				<path class="st1" d="M-2364.33,980.58l9.63,185.15l26.36-1.37l1.28,24.57l-56.62,2.95l-10.91-209.72L-2364.33,980.58z"/>
				<path class="st1" d="M-2297.52,977.1l9.63,185.15l26.36-1.37l1.28,24.57l-56.62,2.95l-10.91-209.72L-2297.52,977.1z"/>
				<path class="st1" d="M-2202.77,996.81l-26.66,1.39l3.55,68.31l24.87-1.29l1.28,24.57l-24.87,1.29l3.52,67.71l29.36-1.53
					l1.28,24.57l-59.62,3.1l-10.91-209.72l56.92-2.96L-2202.77,996.81z"/>
				<path class="st1" d="M-2101.13,1137.52c0.78,14.98-2.34,26.26-9.35,33.83c-7.02,7.57-16.82,11.69-29.4,12.34
					c-12.58,0.65-22.81-2.47-30.68-9.37c-7.87-6.9-12.19-17.74-12.96-32.52l-8.85-170.17l30.26-1.57l9.05,174.06
					c0.29,5.59,1.35,9.54,3.17,11.85c1.82,2.31,4.63,3.36,8.43,3.17c3.79-0.2,6.53-1.54,8.2-4.03c1.67-2.49,2.36-6.53,2.07-12.12
					l-9.05-174.06l30.26-1.57L-2101.13,1137.52z"/>
				<path class="st1" d="M-2060.25,964.76c13.18-0.69,23.77,2.62,31.76,9.91c7.99,7.3,12.38,18.54,13.17,33.71l1.53,29.36
					c0.47,8.99-0.94,16.57-4.22,22.75c-3.28,6.18-8.27,10.55-14.94,13.09l0.06,1.2c6.9,1.85,12.31,5.67,16.22,11.47
					c3.91,5.8,6.1,13.3,6.58,22.49l1.75,33.55c0.16,3,0.35,5.74,0.58,8.23c0.23,2.49,0.45,4.83,0.67,7.02
					c0.21,2.19,0.53,4.33,0.93,6.41s0.98,4.41,1.71,6.97l0.06,1.2l-30.26,1.57c-1.09-5.55-1.94-10.36-2.55-14.44
					c-0.62-4.07-1.08-9.21-1.4-15.4l-2.15-41.34c-0.29-5.59-1.5-9.53-3.62-11.83c-2.12-2.29-5.28-3.33-9.47-3.11l-7.49,0.39
					l4.52,86.88l-30.26,1.57L-2098,966.73L-2060.25,964.76z M-2062.61,1063.72l7.49-0.39c4.19-0.22,7.23-1.58,9.1-4.08
					c1.87-2.5,2.66-6.55,2.37-12.14l-2.24-43.14c-0.29-5.59-1.5-9.48-3.61-11.68c-2.12-2.19-5.27-3.18-9.47-2.96l-7.49,0.39
					L-2062.61,1063.72z"/>
			</g>
			<g>
				<path class="st1" d="M-2483.21,1496.65c1.28,24.57-3.65,43.39-14.78,56.45c-11.14,13.06-27.3,20.15-48.5,21.25
					c-21.54,1.12-38.52-4.24-50.95-16.08c-12.43-11.83-19.28-30.04-20.56-54.61l-11.48-220.6c-1.26-24.23,3.67-42.87,14.81-55.94
					c11.13-13.06,27.46-20.16,49-21.28c21.53-1.12,38.43,4.16,50.68,15.84c12.25,11.68,19.01,29.81,20.29,54.37L-2483.21,1496.65z
					 M-2551.08,1252.41c-2.9-3.72-7.2-5.45-12.92-5.15c-5.73,0.3-9.74,2.45-12.07,6.45c-2.32,4-3.24,10.72-2.75,20.14l12.16,233.73
					c0.49,9.43,2.1,16.09,4.84,20c2.73,3.91,6.96,5.71,12.68,5.42c5.72-0.3,9.82-2.54,12.3-6.72c2.48-4.18,3.48-10.98,2.99-20.4
					l-12.16-233.73C-2546.5,1262.72-2548.19,1256.15-2551.08,1252.41z"/>
				<path class="st1" d="M-2379.36,1245.25l-44.93,2.34l6.12,117.62l38.36-2l2.15,41.39l-38.37,2l7.96,152.96l-50.99,2.65
					l-18.38-353.37l95.91-4.99L-2379.36,1245.25z"/>
				<path class="st1" d="M-2267.8,1239.45l-44.93,2.34l6.12,117.62l38.36-2l2.15,41.39l-38.36,2l7.96,152.96l-50.99,2.65
					l-18.38-353.37l95.91-4.99L-2267.8,1239.45z"/>
				<path class="st1" d="M-2190.71,1193.93c22.21-1.16,40.04,4.42,53.51,16.7c13.46,12.3,20.86,31.23,22.19,56.8l2.57,49.47
					c0.79,15.14-1.58,27.92-7.12,38.33c-5.53,10.41-13.93,17.77-25.17,22.06l0.1,2.02c11.63,3.11,20.74,9.55,27.33,19.33
					c6.58,9.78,10.28,22.42,11.08,37.89l2.94,56.54c0.26,5.05,0.58,9.67,0.97,13.87c0.38,4.2,0.76,8.15,1.12,11.84
					c0.36,3.7,0.89,7.29,1.57,10.8c0.69,3.51,1.65,7.43,2.89,11.74l0.11,2.02l-50.99,2.65c-1.84-9.35-3.27-17.46-4.3-24.33
					c-1.04-6.86-1.82-15.51-2.36-25.95l-3.62-69.66c-0.49-9.42-2.53-16.07-6.1-19.93c-3.58-3.86-8.9-5.61-15.96-5.24l-12.62,0.66
					l7.62,146.39l-50.99,2.65l-18.38-353.37L-2190.71,1193.93z M-2194.69,1360.67l12.62-0.66c7.07-0.37,12.18-2.66,15.33-6.87
					c3.15-4.21,4.49-11.03,4-20.45l-3.78-72.69c-0.49-9.42-2.52-15.98-6.09-19.68c-3.57-3.69-8.88-5.36-15.95-4.99l-12.62,0.66
					L-2194.69,1360.67z"/>
				<path class="st1" d="M-2001.27,1225.58l-44.93,2.34l5.99,115.1l41.9-2.18l2.15,41.39l-41.9,2.18l5.93,114.09l49.47-2.57
					l2.15,41.39l-100.46,5.23l-18.38-353.37l95.91-4.99L-2001.27,1225.58z"/>
			</g>
		</g>
	</g>
	<g class="st4">
		<path class="st7" d="M-2751.44,786.78h-161.55c-2.32,0-4.2-1.88-4.2-4.2V615.86c0-2.32,1.88-4.2,4.2-4.2h161.55
			c2.32,0,4.2,1.88,4.2,4.2v166.71C-2747.24,784.9-2749.12,786.78-2751.44,786.78z"/>
		<g>
			<g>
				<path class="st1" d="M-2879.38,679.6h-6.84l1.37-35.06l0.22-5.18l-0.29-0.07l-0.58,5.26l-3.82,35.06h-6.77l-3.96-35.06
					l-0.65-5.26l-0.36,0.07l0.29,5.18l1.37,35.06h-6.84v-50.4h10.51l2.59,35.28l0.29,4.9h0.36l0.22-4.9l2.3-35.28h10.58V679.6z"/>
				<path class="st1" d="M-2862.68,635.11h-6.41v16.41h5.98v5.9h-5.98v16.27h7.06v5.9h-14.33v-50.4h13.68V635.11z"/>
				<path class="st1" d="M-2851.95,679.6h-7.27v-50.4h7.27V679.6z"/>
				<path class="st1" d="M-2841.08,629.21v44.49h6.34v5.9h-13.61v-50.4H-2841.08z"/>
				<path class="st1" d="M-2825.03,629.21v44.49h6.34v5.9h-13.61v-50.4H-2825.03z"/>
				<path class="st1" d="M-2802.56,635.11h-6.41v16.41h5.98v5.9h-5.98v16.27h7.06v5.9h-14.33v-50.4h13.68V635.11z"/>
				<path class="st1" d="M-2779.96,670.1c0,3.6-0.89,6.26-2.66,7.99c-1.78,1.73-4.18,2.59-7.2,2.59c-3.02,0-5.44-0.88-7.24-2.63
					c-1.8-1.75-2.7-4.4-2.7-7.96v-40.89h7.27v41.83c0,1.34,0.2,2.3,0.61,2.88c0.41,0.58,1.07,0.86,1.98,0.86
					c0.91,0,1.58-0.29,2.02-0.86c0.43-0.58,0.65-1.54,0.65-2.88v-41.83h7.27V670.1z"/>
				<path class="st1" d="M-2768.01,629.21c3.17,0,5.66,0.92,7.49,2.77c1.82,1.85,2.74,4.6,2.74,8.24v7.06c0,2.16-0.43,3.96-1.3,5.4
					c-0.86,1.44-2.11,2.42-3.74,2.95v0.29c1.63,0.53,2.88,1.51,3.74,2.95c0.86,1.44,1.3,3.26,1.3,5.47v8.06
					c0,0.72,0.01,1.38,0.04,1.98c0.02,0.6,0.05,1.16,0.07,1.69c0.02,0.53,0.07,1.04,0.14,1.55c0.07,0.5,0.18,1.07,0.32,1.69v0.29
					h-7.27c-0.19-1.34-0.34-2.51-0.43-3.49c-0.1-0.98-0.14-2.22-0.14-3.71v-9.94c0-1.34-0.24-2.3-0.72-2.88
					c-0.48-0.58-1.22-0.86-2.23-0.86h-1.8v20.88h-7.27v-50.4H-2768.01z M-2769.81,652.89h1.8c1.01,0,1.75-0.29,2.23-0.86
					c0.48-0.58,0.72-1.54,0.72-2.88v-10.37c0-1.34-0.24-2.29-0.72-2.84c-0.48-0.55-1.22-0.83-2.23-0.83h-1.8V652.89z"/>
			</g>
			<g>
				<path class="st1" d="M-2876,751.4c0,5.9-1.42,10.35-4.25,13.34c-2.83,2.99-6.79,4.49-11.89,4.49c-5.18,0-9.18-1.5-12.01-4.49
					c-2.83-2.99-4.25-7.44-4.25-13.34v-53.01c0-5.82,1.41-10.23,4.25-13.22c2.83-2.99,6.83-4.49,12.01-4.49
					c5.17,0,9.16,1.48,11.95,4.43c2.79,2.95,4.19,7.38,4.19,13.28V751.4z M-2889.23,692.02c-0.65-0.93-1.66-1.4-3.03-1.4
					c-1.38,0-2.37,0.47-2.97,1.4c-0.61,0.93-0.91,2.53-0.91,4.79v56.17c0,2.27,0.3,3.88,0.91,4.85c0.61,0.97,1.6,1.46,2.97,1.46
					c1.37,0,2.38-0.49,3.03-1.46c0.65-0.97,0.97-2.59,0.97-4.85v-56.17C-2888.26,694.55-2888.58,692.96-2889.23,692.02z"/>
				<path class="st1" d="M-2847.98,692.45h-10.8v28.26h9.22v9.95h-9.22v36.76h-12.25V682.5h23.05V692.45z"/>
				<path class="st1" d="M-2821.18,692.45h-10.8v28.26h9.22v9.95h-9.22v36.76h-12.25V682.5h23.05V692.45z"/>
				<path class="st1" d="M-2802.13,682.5c5.34,0,9.54,1.56,12.62,4.67c3.07,3.11,4.61,7.74,4.61,13.89v11.89
					c0,3.64-0.73,6.67-2.18,9.1c-1.46,2.43-3.56,4.08-6.31,4.97v0.49c2.75,0.89,4.85,2.55,6.31,4.97c1.46,2.43,2.18,5.5,2.18,9.22
					v13.59c0,1.21,0.02,2.33,0.06,3.34c0.04,1.01,0.08,1.96,0.12,2.85c0.04,0.89,0.12,1.76,0.24,2.61s0.3,1.8,0.55,2.85v0.49h-12.25
					c-0.32-2.26-0.57-4.22-0.73-5.88c-0.16-1.66-0.24-3.74-0.24-6.25v-16.74c0-2.26-0.41-3.88-1.21-4.85
					c-0.81-0.97-2.06-1.46-3.76-1.46h-3.03v35.18h-12.25V682.5H-2802.13z M-2805.16,722.41h3.03c1.7,0,2.95-0.49,3.76-1.46
					c0.81-0.97,1.21-2.59,1.21-4.85v-17.47c0-2.26-0.41-3.86-1.21-4.79c-0.81-0.93-2.06-1.4-3.76-1.4h-3.03V722.41z"/>
				<path class="st1" d="M-2757.13,692.45h-10.8v27.66h10.07v9.95h-10.07v27.42h11.89v9.95h-24.14V682.5h23.05V692.45z"/>
			</g>
		</g>
	</g>
	<g class="st4">
		<path class="st7" d="M-3345.2,1216.79h-420.51c-6.04,0-10.94-4.9-10.94-10.94V771.89c0-6.04,4.9-10.94,10.94-10.94h420.51
			c6.04,0,10.94,4.9,10.94,10.94v433.96C-3334.26,1211.89-3339.15,1216.79-3345.2,1216.79z"/>
		<g>
			<g>
				<path class="st1" d="M-3678.23,937.8h-17.8l3.56-91.26l0.56-13.49l-0.75-0.19l-1.5,13.68l-9.93,91.26h-17.62l-10.31-91.26
					l-1.69-13.68l-0.94,0.19l0.75,13.49l3.56,91.26h-17.8V806.62h27.36l6.75,91.83l0.75,12.74h0.94l0.56-12.74l6-91.83h27.55V937.8z
					"/>
				<path class="st1" d="M-3634.75,821.99h-16.68v42.73h15.55v15.37h-15.55v42.35h18.37v15.37h-37.29V806.62h35.61V821.99z"/>
				<path class="st1" d="M-3606.83,937.8h-18.93V806.62h18.93V937.8z"/>
				<path class="st1" d="M-3578.53,806.62v115.81h16.49v15.37h-35.42V806.62H-3578.53z"/>
				<path class="st1" d="M-3536.74,806.62v115.81h16.49v15.37h-35.42V806.62H-3536.74z"/>
				<path class="st1" d="M-3478.27,821.99h-16.68v42.73h15.55v15.37h-15.55v42.35h18.37v15.37h-37.29V806.62h35.61V821.99z"/>
				<path class="st1" d="M-3419.43,913.06c0,9.37-2.31,16.3-6.93,20.8c-4.62,4.5-10.87,6.75-18.74,6.75
					c-7.87,0-14.15-2.28-18.83-6.84c-4.69-4.56-7.03-11.46-7.03-20.71V806.62h18.93V915.5c0,3.5,0.53,6,1.59,7.5
					c1.06,1.5,2.78,2.25,5.15,2.25c2.37,0,4.12-0.75,5.25-2.25c1.12-1.5,1.69-4,1.69-7.5V806.62h18.93V913.06z"/>
				<path class="st1" d="M-3388.32,806.62c8.25,0,14.74,2.41,19.49,7.21c4.75,4.81,7.12,11.96,7.12,21.46v18.36
					c0,5.62-1.12,10.31-3.37,14.06c-2.25,3.75-5.5,6.31-9.74,7.68v0.75c4.25,1.38,7.5,3.94,9.74,7.68c2.25,3.75,3.37,8.5,3.37,14.24
					v20.99c0,1.87,0.03,3.59,0.09,5.15c0.06,1.56,0.12,3.03,0.19,4.4c0.06,1.38,0.19,2.72,0.38,4.03c0.19,1.31,0.47,2.78,0.84,4.4
					v0.75h-18.93c-0.5-3.5-0.88-6.53-1.12-9.09c-0.25-2.56-0.37-5.78-0.37-9.65V893.2c0-3.5-0.63-6-1.87-7.5
					c-1.25-1.5-3.19-2.25-5.81-2.25h-4.69v54.35h-18.93V806.62H-3388.32z M-3393.01,868.28h4.69c2.62,0,4.56-0.75,5.81-2.25
					c1.25-1.5,1.87-4,1.87-7.5v-26.99c0-3.5-0.63-5.96-1.87-7.4c-1.25-1.43-3.19-2.16-5.81-2.16h-4.69V868.28z"/>
			</g>
			<g>
				<path class="st1" d="M-3669.44,1124.7c0,15.37-3.69,26.95-11.05,34.73c-7.37,7.79-17.68,11.68-30.95,11.68
					c-13.47,0-23.89-3.9-31.26-11.68c-7.37-7.79-11.05-19.37-11.05-34.73V986.71c0-15.16,3.68-26.63,11.05-34.42
					c7.37-7.79,17.79-11.68,31.26-11.68c13.47,0,23.84,3.84,31.1,11.53c7.26,7.69,10.89,19.21,10.89,34.58V1124.7z M-3703.86,970.14
					c-1.69-2.42-4.32-3.63-7.89-3.63c-3.58,0-6.16,1.21-7.74,3.63c-1.58,2.42-2.37,6.58-2.37,12.47v146.2
					c0,5.9,0.79,10.11,2.37,12.63c1.58,2.53,4.15,3.79,7.74,3.79c3.58,0,6.21-1.26,7.89-3.79c1.68-2.53,2.53-6.73,2.53-12.63v-146.2
					C-3701.33,976.72-3702.17,972.56-3703.86,970.14z"/>
				<path class="st1" d="M-3596.5,971.24h-28.1v73.57h24v25.89h-24v95.68h-31.89V945.35h60V971.24z"/>
				<path class="st1" d="M-3526.72,971.24h-28.1v73.57h24v25.89h-24v95.68h-31.89V945.35h60V971.24z"/>
				<path class="st1" d="M-3477.14,945.35c13.89,0,24.84,4.06,32.84,12.16c8,8.11,12,20.16,12,36.16v30.94
					c0,9.47-1.89,17.37-5.68,23.68c-3.79,6.32-9.27,10.63-16.42,12.95v1.26c7.15,2.32,12.63,6.63,16.42,12.95
					c3.79,6.32,5.68,14.32,5.68,24v35.37c0,3.16,0.05,6.05,0.16,8.68c0.1,2.63,0.21,5.11,0.32,7.42c0.1,2.32,0.32,4.58,0.63,6.79
					c0.32,2.21,0.79,4.69,1.42,7.42v1.26h-31.89c-0.84-5.89-1.48-11-1.89-15.31c-0.42-4.31-0.63-9.74-0.63-16.26v-43.58
					c0-5.89-1.06-10.1-3.16-12.63c-2.11-2.53-5.37-3.79-9.79-3.79h-7.89v91.57h-31.89V945.35H-3477.14z M-3485.04,1049.24h7.89
					c4.42,0,7.68-1.26,9.79-3.79c2.1-2.53,3.16-6.73,3.16-12.63v-45.47c0-5.89-1.06-10.05-3.16-12.47
					c-2.11-2.42-5.37-3.63-9.79-3.63h-7.89V1049.24z"/>
				<path class="st1" d="M-3360,971.24h-28.1v71.99h26.21v25.89h-26.21v71.36h30.94v25.89h-62.84V945.35h60V971.24z"/>
			</g>
		</g>
	</g>
	<g class="st4">
		<g>
			<path class="st1" d="M-4217.47,1744.35h-17.8l3.56-91.26l0.56-13.49l-0.75-0.19l-1.5,13.68l-9.93,91.26h-17.62l-10.31-91.26
				l-1.69-13.68l-0.94,0.19l0.75,13.49l3.56,91.26h-17.8v-131.18h27.36l6.75,91.83l0.75,12.74h0.94l0.56-12.74l6-91.83h27.55
				V1744.35z"/>
			<path class="st1" d="M-4174,1628.53h-16.68v42.73h15.55v15.37h-15.55v42.35h18.37v15.37h-37.29v-131.18h35.61V1628.53z"/>
			<path class="st1" d="M-4146.07,1744.35H-4165v-131.18h18.93V1744.35z"/>
			<path class="st1" d="M-4117.78,1613.17v115.81h16.49v15.37h-35.42v-131.18H-4117.78z"/>
			<path class="st1" d="M-4075.99,1613.17v115.81h16.49v15.37h-35.42v-131.18H-4075.99z"/>
			<path class="st1" d="M-4017.52,1628.53h-16.68v42.73h15.55v15.37h-15.55v42.35h18.37v15.37h-37.29v-131.18h35.61V1628.53z"/>
			<path class="st1" d="M-3958.68,1719.61c0,9.37-2.31,16.3-6.93,20.8c-4.62,4.5-10.87,6.75-18.74,6.75
				c-7.87,0-14.15-2.28-18.83-6.84c-4.69-4.56-7.03-11.46-7.03-20.71v-106.44h18.93v108.88c0,3.5,0.53,6,1.59,7.5
				c1.06,1.5,2.78,2.25,5.15,2.25c2.37,0,4.12-0.75,5.25-2.25c1.12-1.5,1.69-4,1.69-7.5v-108.88h18.93V1719.61z"/>
			<path class="st1" d="M-3927.57,1613.17c8.25,0,14.74,2.41,19.49,7.21c4.75,4.81,7.12,11.96,7.12,21.46v18.36
				c0,5.62-1.12,10.31-3.37,14.06c-2.25,3.75-5.5,6.31-9.74,7.68v0.75c4.25,1.38,7.5,3.94,9.74,7.68c2.25,3.75,3.37,8.5,3.37,14.24
				v20.99c0,1.87,0.03,3.59,0.09,5.15c0.06,1.56,0.12,3.03,0.19,4.4c0.06,1.38,0.19,2.72,0.37,4.03s0.47,2.78,0.84,4.4v0.75h-18.93
				c-0.5-3.5-0.88-6.53-1.12-9.09c-0.25-2.56-0.38-5.78-0.38-9.65v-25.86c0-3.5-0.63-6-1.87-7.5c-1.25-1.5-3.19-2.25-5.81-2.25
				h-4.69v54.35h-18.93v-131.18H-3927.57z M-3932.25,1674.82h4.69c2.62,0,4.56-0.75,5.81-2.25c1.25-1.5,1.87-4,1.87-7.5v-26.99
				c0-3.5-0.63-5.96-1.87-7.4c-1.25-1.43-3.19-2.16-5.81-2.16h-4.69V1674.82z"/>
		</g>
		<g>
			<path class="st1" d="M-4208.68,1931.25c0,15.37-3.69,26.95-11.05,34.73c-7.37,7.79-17.68,11.68-30.95,11.68
				c-13.47,0-23.89-3.9-31.26-11.68c-7.37-7.79-11.05-19.37-11.05-34.73v-137.99c0-15.16,3.68-26.63,11.05-34.42
				c7.37-7.79,17.79-11.68,31.26-11.68c13.47,0,23.84,3.84,31.1,11.53c7.26,7.69,10.89,19.21,10.89,34.58V1931.25z M-4243.1,1776.68
				c-1.69-2.42-4.32-3.63-7.89-3.63c-3.58,0-6.16,1.21-7.74,3.63c-1.58,2.42-2.37,6.58-2.37,12.47v146.2
				c0,5.9,0.79,10.11,2.37,12.63c1.58,2.53,4.15,3.79,7.74,3.79c3.58,0,6.21-1.26,7.89-3.79c1.68-2.53,2.53-6.73,2.53-12.63v-146.2
				C-4240.58,1783.26-4241.42,1779.1-4243.1,1776.68z"/>
			<path class="st1" d="M-4135.74,1777.79h-28.1v73.57h24v25.89h-24v95.68h-31.89v-221.04h60V1777.79z"/>
			<path class="st1" d="M-4065.96,1777.79h-28.1v73.57h24v25.89h-24v95.68h-31.89v-221.04h60V1777.79z"/>
			<path class="st1" d="M-4016.39,1751.89c13.89,0,24.84,4.06,32.84,12.16c8,8.11,12,20.16,12,36.16v30.94
				c0,9.47-1.89,17.37-5.68,23.68c-3.79,6.32-9.27,10.63-16.42,12.95v1.26c7.15,2.32,12.63,6.63,16.42,12.95
				c3.79,6.32,5.68,14.32,5.68,24v35.37c0,3.16,0.05,6.05,0.16,8.68c0.1,2.63,0.21,5.11,0.32,7.42c0.1,2.32,0.32,4.58,0.63,6.79
				c0.32,2.21,0.79,4.69,1.42,7.42v1.26h-31.89c-0.84-5.89-1.48-11-1.89-15.31c-0.42-4.31-0.63-9.74-0.63-16.26v-43.58
				c0-5.89-1.06-10.1-3.16-12.63c-2.11-2.53-5.37-3.79-9.79-3.79h-7.89v91.57h-31.89v-221.04H-4016.39z M-4024.28,1855.78h7.89
				c4.42,0,7.68-1.26,9.79-3.79c2.1-2.53,3.16-6.73,3.16-12.63v-45.47c0-5.89-1.06-10.05-3.16-12.47c-2.11-2.42-5.37-3.63-9.79-3.63
				h-7.89V1855.78z"/>
			<path class="st1" d="M-3899.24,1777.79h-28.1v71.99h26.21v25.89h-26.21v71.36h30.94v25.89h-62.84v-221.04h60V1777.79z"/>
		</g>
	</g>
	<path class="st3" d="M-4158.42,1152.74h-230.91c-3.47,0-6.28-2.81-6.28-6.28V886.55c0-3.47,2.81-6.28,6.28-6.28h230.91
		c3.47,0,6.28,2.81,6.28,6.28v259.91C-4152.15,1149.93-4154.96,1152.74-4158.42,1152.74z"/>
	<g class="st4">
		<g>
			<path class="st5" d="M-4285.75,966.62v0.65l22.98,76.38h-39.06l-11.49-46.43l-1.91-20.61h-1.53l-1.92,20.61l-10.72,46.43h-38.68
				l21.44-76.81v-0.65l-21.44-74.43h38.68l10.72,44.48l1.92,20.83h1.53l1.91-20.83l11.49-44.48h39.06L-4285.75,966.62z"/>
			<path class="st5" d="M-4196.52,1025.86h16.85v17.79h-72.38v-17.79h16.85V923.01h-13.79v-13.67c8.17,0,13.79-1.52,16.85-4.56
				c3.06-3.04,4.6-7.38,4.6-13.02h31.02V1025.86z"/>
		</g>
		<g>
			<path class="st5" d="M-4336.86,1062.07h-9.51v77.31h-12.32v-77.31h-9.39v-10.26h31.22V1062.07z"/>
			<path class="st5" d="M-4319.3,1139.38h-12.32v-87.57h12.32V1139.38z"/>
			<path class="st5" d="M-4294.06,1061.69c-0.65-1-1.67-1.5-3.05-1.5c-1.3,0-2.28,0.5-2.93,1.5c-0.65,1-0.98,2.63-0.98,4.88v57.92
				c0,2.34,0.32,4,0.98,5c0.65,1,1.63,1.5,2.93,1.5c1.38,0,2.4-0.5,3.05-1.5c0.65-1,0.98-2.67,0.98-5v-17.01h12.32v15.39
				c0,6.17-1.46,10.78-4.39,13.82c-2.93,3.04-6.87,4.57-11.83,4.57c-4.96,0-8.92-1.52-11.89-4.57c-2.97-3.04-4.45-7.65-4.45-13.82
				v-54.67c0-6.26,1.46-10.86,4.39-13.82c2.93-2.96,6.87-4.44,11.83-4.44c5.04,0,9.02,1.48,11.95,4.44
				c2.93,2.96,4.39,7.57,4.39,13.82v15.39h-12.32v-17.01C-4293.08,1064.32-4293.41,1062.69-4294.06,1061.69z"/>
			<path class="st5" d="M-4252.23,1087.97v0.25l10.37,51.17h-12.44l-6.95-39.53h-0.37l-1.83,5.25v34.28h-12.32v-87.57h12.32v23.14
				l-1.22,16.51l0.49,0.13l9.39-39.78h12.32L-4252.23,1087.97z"/>
			<path class="st5" d="M-4214.92,1062.07h-10.85v28.52h10.12v10.26h-10.12v28.27h11.95v10.26h-24.27v-87.57h23.17V1062.07z"/>
			<path class="st5" d="M-4179.67,1062.07h-9.51v77.31h-12.32v-77.31h-9.39v-10.26h31.22V1062.07z"/>
		</g>
	</g>
	<path class="st9" d="M-3658.7,1460.09v0.9l18,105.6h-30.6l-9-64.2l-1.5-28.5h-1.2l-1.5,28.5l-8.4,64.2h-30.3l16.8-106.2v-0.9
		l-16.8-102.9h30.3l8.4,61.5l1.5,28.8h1.2l1.5-28.8l9-61.5h30.6L-3658.7,1460.09z"/>
	<path class="st9" d="M-3419.9,1381.19h-23.4v185.4h-30.3v-185.4h-23.1v-24.6h76.8V1381.19z"/>
	<path class="st9" d="M-3376.71,1566.59h-30.3v-210h30.3V1566.59z"/>
	<path class="st9" d="M-3314.61,1380.29c-1.6-2.4-4.1-3.6-7.5-3.6c-3.2,0-5.6,1.2-7.2,3.6c-1.6,2.4-2.4,6.3-2.4,11.7v138.9
		c0,5.6,0.8,9.6,2.4,12c1.6,2.4,4,3.6,7.2,3.6c3.4,0,5.9-1.2,7.5-3.6c1.6-2.4,2.4-6.4,2.4-12v-40.8h30.3v36.9
		c0,14.8-3.6,25.85-10.8,33.15c-7.2,7.3-16.9,10.95-29.1,10.95c-12.2,0-21.95-3.65-29.25-10.95c-7.3-7.3-10.95-18.35-10.95-33.15
		v-131.1c0-15,3.6-26.05,10.8-33.15c7.2-7.1,16.9-10.65,29.1-10.65c12.4,0,22.2,3.55,29.4,10.65c7.2,7.1,10.8,18.15,10.8,33.15v36.9
		h-30.3v-40.8C-3312.21,1386.59-3313.01,1382.69-3314.61,1380.29z"/>
	<path class="st9" d="M-3211.71,1443.29v0.6l25.5,122.7h-30.6l-17.1-94.8h-0.9l-4.5,12.6v82.2h-30.3v-210h30.3v55.5l-3,39.6l1.2,0.3
		l23.1-95.4h30.3L-3211.71,1443.29z"/>
	<path class="st9" d="M-3119.91,1381.19h-26.7v68.4h24.9v24.6h-24.9v67.8h29.4v24.6h-59.7v-210h57V1381.19z"/>
	<path class="st9" d="M-3033.21,1381.19h-23.4v185.4h-30.3v-185.4h-23.1v-24.6h76.8V1381.19z"/>
	<path class="st9" d="M-2976.21,1423.79v-31.8c0-5.8-0.8-9.8-2.4-12c-1.6-2.2-3.9-3.3-6.9-3.3c-3.2,0-5.6,1.1-7.2,3.3
		c-1.6,2.2-2.4,6.2-2.4,12v20.1c0,7.2,2,13.9,6,20.1c4,6.2,8.6,12.2,13.8,18c3.6,3.8,7.15,7.75,10.65,11.85
		c3.5,4.1,6.7,8.5,9.6,13.2c2.9,4.7,5.25,9.8,7.05,15.3c1.8,5.5,2.7,11.65,2.7,18.45v18c0,14.8-3.6,25.85-10.8,33.15
		c-7.2,7.3-17.1,10.95-29.7,10.95s-22.45-3.6-29.55-10.8c-7.1-7.2-10.65-18.3-10.65-33.3v-27.9h30.3v31.8c0,6,0.85,10.1,2.55,12.3
		c1.7,2.2,4.25,3.3,7.65,3.3c3.2,0,5.65-1.1,7.35-3.3c1.7-2.2,2.55-6.3,2.55-12.3v-20.1c0-4-0.7-7.8-2.1-11.4
		c-1.4-3.6-3.25-7.2-5.55-10.8c-2.3-3.6-4.9-7.1-7.8-10.5c-2.9-3.4-5.95-6.7-9.15-9.9c-3-3.6-6.05-7.3-9.15-11.1
		c-3.1-3.8-5.85-7.85-8.25-12.15c-2.4-4.3-4.3-8.95-5.7-13.95c-1.4-5-2.1-10.6-2.1-16.8v-18.3c0-14.8,3.55-25.8,10.65-33
		c7.1-7.2,16.85-10.8,29.25-10.8c12.4,0,22.1,3.6,29.1,10.8c7,7.2,10.5,18.2,10.5,33v27.9H-2976.21z"/>
	<path class="st9" d="M-1434.38,1862.85v0.9l18,105.6h-30.6l-9-64.2l-1.5-28.5h-1.2l-1.5,28.5l-8.4,64.2h-30.3l16.8-106.2v-0.9
		l-16.8-102.9h30.3l8.4,61.5l1.5,28.8h1.2l1.5-28.8l9-61.5h30.6L-1434.38,1862.85z"/>
	<path class="st9" d="M-1328.18,1831.05c0,7.6-1.05,13.8-3.15,18.6c-2.1,4.8-5.85,8.3-11.25,10.5v1.2c5.4,2.2,9.15,5.5,11.25,9.9
		c2.1,4.4,3.15,10.4,3.15,18v40.8c0,14.6-3.45,25.55-10.35,32.85c-6.9,7.3-16.75,10.95-29.55,10.95c-12.8,0-22.7-3.7-29.7-11.1
		c-7-7.4-10.5-18.3-10.5-32.7v-40.2h30.3v44.1c0,5.6,0.75,9.55,2.25,11.85c1.5,2.3,3.95,3.45,7.35,3.45c3.4,0,5.9-1.15,7.5-3.45
		c1.6-2.3,2.4-6.25,2.4-11.85v-41.1c0-7.6-0.9-12.75-2.7-15.45c-1.8-2.7-5.3-4.05-10.5-4.05h-6.9v-24.6h6.9
		c5,0,8.45-1.35,10.35-4.05c1.9-2.7,2.85-7.75,2.85-15.15v-34.8c0-5.6-0.8-9.55-2.4-11.85c-1.6-2.3-4.1-3.45-7.5-3.45
		c-3.4,0-5.85,1.15-7.35,3.45c-1.5,2.3-2.25,6.25-2.25,11.85v37.8h-30.3v-33.9c0-14.4,3.5-25.3,10.5-32.7c7-7.4,16.9-11.1,29.7-11.1
		c12.8,0,22.65,3.65,29.55,10.95c6.9,7.3,10.35,18.25,10.35,32.85V1831.05z"/>
	<path class="st9" d="M-1195.59,1783.95h-23.4v185.4h-30.3v-185.4h-23.1v-24.6h76.8V1783.95z"/>
	<path class="st9" d="M-1152.39,1969.35h-30.3v-210h30.3V1969.35z"/>
	<path class="st9" d="M-1090.29,1783.05c-1.6-2.4-4.1-3.6-7.5-3.6c-3.2,0-5.6,1.2-7.2,3.6c-1.6,2.4-2.4,6.3-2.4,11.7v138.9
		c0,5.6,0.8,9.6,2.4,12c1.6,2.4,4,3.6,7.2,3.6c3.4,0,5.9-1.2,7.5-3.6c1.6-2.4,2.4-6.4,2.4-12v-40.8h30.3v36.9
		c0,14.8-3.6,25.85-10.8,33.15c-7.2,7.3-16.9,10.95-29.1,10.95c-12.2,0-21.95-3.65-29.25-10.95c-7.3-7.3-10.95-18.35-10.95-33.15
		v-131.1c0-15,3.6-26.05,10.8-33.15c7.2-7.1,16.9-10.65,29.1-10.65c12.4,0,22.2,3.55,29.4,10.65c7.2,7.1,10.8,18.15,10.8,33.15v36.9
		h-30.3v-40.8C-1087.89,1789.35-1088.69,1785.45-1090.29,1783.05z"/>
	<path class="st9" d="M-987.39,1846.05v0.6l25.5,122.7h-30.6l-17.1-94.8h-0.9l-4.5,12.6v82.2h-30.3v-210h30.3v55.5l-3,39.6l1.2,0.3
		l23.1-95.4h30.3L-987.39,1846.05z"/>
	<path class="st9" d="M-895.59,1783.95h-26.7v68.4h24.9v24.6h-24.9v67.8h29.4v24.6h-59.7v-210h57V1783.95z"/>
	<path class="st9" d="M-808.89,1783.95h-23.4v185.4h-30.3v-185.4h-23.1v-24.6h76.8V1783.95z"/>
	<path class="st9" d="M-751.89,1826.55v-31.8c0-5.8-0.8-9.8-2.4-12c-1.6-2.2-3.9-3.3-6.9-3.3c-3.2,0-5.6,1.1-7.2,3.3
		c-1.6,2.2-2.4,6.2-2.4,12v20.1c0,7.2,2,13.9,6,20.1c4,6.2,8.6,12.2,13.8,18c3.6,3.8,7.15,7.75,10.65,11.85
		c3.5,4.1,6.7,8.5,9.6,13.2c2.9,4.7,5.25,9.8,7.05,15.3c1.8,5.5,2.7,11.65,2.7,18.45v18c0,14.8-3.6,25.85-10.8,33.15
		c-7.2,7.3-17.1,10.95-29.7,10.95s-22.45-3.6-29.55-10.8c-7.1-7.2-10.65-18.3-10.65-33.3v-27.9h30.3v31.8c0,6,0.85,10.1,2.55,12.3
		c1.7,2.2,4.25,3.3,7.65,3.3c3.2,0,5.65-1.1,7.35-3.3c1.7-2.2,2.55-6.3,2.55-12.3v-20.1c0-4-0.7-7.8-2.1-11.4
		c-1.4-3.6-3.25-7.2-5.55-10.8c-2.3-3.6-4.9-7.1-7.8-10.5c-2.9-3.4-5.95-6.7-9.15-9.9c-3-3.6-6.05-7.3-9.15-11.1
		c-3.1-3.8-5.85-7.85-8.25-12.15c-2.4-4.3-4.3-8.95-5.7-13.95c-1.4-5-2.1-10.6-2.1-16.8v-18.3c0-14.8,3.55-25.8,10.65-33
		c7.1-7.2,16.85-10.8,29.25-10.8c12.4,0,22.1,3.6,29.1,10.8c7,7.2,10.5,18.2,10.5,33v27.9H-751.89z"/>
	<path class="st3" d="M-3937.93,1474.06h-230.91c-3.47,0-6.28-2.81-6.28-6.28v-259.91c0-3.47,2.81-6.28,6.28-6.28h230.91
		c3.47,0,6.28,2.81,6.28,6.28v259.91C-3931.66,1471.25-3934.46,1474.06-3937.93,1474.06z"/>
	<path class="st9" d="M-3842.56,1241.59h16.85v17.79h-72.38v-17.79h16.85v-102.85h-13.79v-13.67c8.17,0,13.79-1.52,16.85-4.56
		c3.06-3.04,4.6-7.38,4.6-13.02h31.02V1241.59z"/>
	<g class="st4">
		<path class="st5" d="M-4066.53,1289.72v0.65l22.98,76.38h-39.06l-11.49-46.43l-1.91-20.61h-1.53l-1.91,20.61l-10.72,46.43h-38.68
			l21.44-76.81v-0.65l-21.44-74.43h38.68l10.72,44.48l1.91,20.83h1.53l1.91-20.83l11.49-44.48h39.06L-4066.53,1289.72z"/>
		<path class="st5" d="M-4039,1249.7c0-11.9,3.5-20.68,10.5-26.34c7-5.66,16.6-8.5,28.8-8.5c12.6,0,22.45,3.01,29.55,9.03
			c7.1,6.02,10.65,15.33,10.65,27.93v15.29c0,4.39-0.7,8.36-2.1,11.9c-1.4,3.54-3.3,6.8-5.7,9.77c-2.4,2.97-5.1,5.7-8.1,8.18
			c-3,2.48-6.2,4.92-9.6,7.33c-3,2.12-5.95,4.29-8.85,6.48c-2.9,2.2-5.5,4.64-7.8,7.33c-2.3,2.69-4.15,5.56-5.55,8.6
			c-1.4,3.05-2.1,6.62-2.1,10.73v11.9h49.8v17.42h-80.1v-28.25c0-6.09,0.9-11.43,2.7-16.04c1.8-4.6,4.15-8.71,7.05-12.32
			c2.9-3.61,6.15-6.87,9.75-9.77c3.6-2.9,7.1-5.56,10.5-7.97c5.4-3.96,10.05-8.11,13.95-12.43c3.9-4.32,5.85-9.17,5.85-14.55v-19.76
			c0-5.1-0.8-8.6-2.4-10.52c-1.6-1.91-4-2.87-7.2-2.87c-3.2,0-5.55,0.89-7.05,2.66c-1.5,1.77-2.25,4.99-2.25,9.67v27.4h-30.3V1249.7
			z"/>
		<g>
			<g>
				<path class="st5" d="M-4121.54,1381.61h-8.31v77.31h-10.76v-77.31h-8.21v-10.26h27.28V1381.61z"/>
				<path class="st5" d="M-4106.2,1458.92h-10.76v-87.57h10.76V1458.92z"/>
				<path class="st5" d="M-4084.14,1381.24c-0.57-1-1.46-1.5-2.66-1.5c-1.14,0-1.99,0.5-2.56,1.5c-0.57,1-0.85,2.63-0.85,4.88v57.92
					c0,2.34,0.28,4,0.85,5c0.57,1,1.42,1.5,2.56,1.5c1.21,0,2.09-0.5,2.66-1.5c0.57-1,0.85-2.67,0.85-5v-17.01h10.76v15.39
					c0,6.17-1.28,10.78-3.84,13.82c-2.56,3.04-6,4.57-10.34,4.57c-4.33,0-7.8-1.52-10.39-4.57c-2.59-3.04-3.89-7.65-3.89-13.82
					v-54.67c0-6.26,1.28-10.86,3.84-13.82c2.56-2.96,6-4.44,10.34-4.44c4.4,0,7.89,1.48,10.44,4.44c2.56,2.96,3.84,7.57,3.84,13.82
					v15.39h-10.76v-17.01C-4083.29,1383.86-4083.57,1382.24-4084.14,1381.24z"/>
				<path class="st5" d="M-4047.58,1407.51v0.25l9.06,51.17h-10.87l-6.07-39.53h-0.32l-1.6,5.25v34.28h-10.76v-87.57h10.76v23.14
					l-1.07,16.51l0.43,0.13l8.21-39.78h10.76L-4047.58,1407.51z"/>
				<path class="st5" d="M-4014.97,1381.61h-9.48v28.52h8.85v10.26h-8.85v28.27h10.44v10.26h-21.21v-87.57h20.25V1381.61z"/>
				<path class="st5" d="M-3984.17,1381.61h-8.31v77.31h-10.76v-77.31h-8.21v-10.26h27.28V1381.61z"/>
			</g>
			<path class="st5" d="M-3967.65,1399.77v-12.93c0-2.36-0.25-3.98-0.76-4.88c-0.51-0.89-1.23-1.34-2.17-1.34
				c-1.01,0-1.76,0.45-2.27,1.34c-0.51,0.9-0.76,2.52-0.76,4.88v8.17c0,2.93,0.63,5.65,1.89,8.17c1.26,2.52,2.71,4.96,4.35,7.32
				c1.13,1.55,2.25,3.15,3.36,4.82c1.1,1.67,2.11,3.46,3.02,5.37c0.91,1.91,1.65,3.98,2.22,6.22c0.57,2.24,0.85,4.74,0.85,7.5v7.32
				c0,6.02-1.13,10.51-3.4,13.48c-2.27,2.97-5.39,4.45-9.36,4.45c-3.97,0-7.07-1.46-9.31-4.39c-2.24-2.93-3.36-7.44-3.36-13.54
				v-11.34h9.55v12.93c0,2.44,0.27,4.11,0.8,5c0.53,0.9,1.34,1.34,2.41,1.34c1.01,0,1.78-0.45,2.32-1.34c0.53-0.89,0.8-2.56,0.8-5
				v-8.17c0-1.63-0.22-3.17-0.66-4.63c-0.44-1.46-1.03-2.93-1.75-4.39c-0.73-1.46-1.54-2.88-2.46-4.27
				c-0.91-1.38-1.88-2.72-2.88-4.02c-0.95-1.46-1.91-2.97-2.88-4.51c-0.98-1.54-1.84-3.19-2.6-4.94c-0.76-1.75-1.36-3.64-1.8-5.67
				c-0.44-2.03-0.66-4.31-0.66-6.83v-7.44c0-6.02,1.12-10.49,3.36-13.42c2.24-2.93,5.31-4.39,9.22-4.39c3.91,0,6.96,1.46,9.17,4.39
				c2.21,2.93,3.31,7.4,3.31,13.42v11.34H-3967.65z"/>
		</g>
	</g>
	<path class="st3" d="M-4007.49-921.72h-153.07c-2.3,0-4.16-1.86-4.16-4.16v-172.29c0-2.3,1.86-4.16,4.16-4.16h153.07
		c2.3,0,4.16,1.86,4.16,4.16v172.29C-4003.33-923.59-4005.2-921.72-4007.49-921.72z"/>
	<g class="st4">
		<g>
			<path class="st5" d="M-4091.9-1045.1v0.43l15.23,50.63h-25.89l-7.62-30.78l-1.27-13.66h-1.02l-1.27,13.66l-7.11,30.78h-25.64
				l14.22-50.92v-0.43l-14.22-49.34h25.64l7.11,29.49l1.27,13.81h1.02l1.27-13.81l7.62-29.49h25.89L-4091.9-1045.1z"/>
			<path class="st5" d="M-4032.75-1005.83h11.17v11.79h-47.98v-11.79h11.17v-68.18h-9.14v-9.06c5.41,0,9.14-1.01,11.17-3.02
				c2.03-2.01,3.05-4.89,3.05-8.63h20.56V-1005.83z"/>
		</g>
		<g>
			<path class="st5" d="M-4125.78-981.83h-6.31v51.25h-8.16v-51.25h-6.22v-6.8h20.69V-981.83z"/>
			<path class="st5" d="M-4114.14-930.58h-8.16v-58.05h8.16V-930.58z"/>
			<path class="st5" d="M-4097.41-982.08c-0.43-0.66-1.1-1-2.02-1c-0.86,0-1.51,0.33-1.94,1c-0.43,0.66-0.65,1.74-0.65,3.23v38.39
				c0,1.55,0.21,2.65,0.65,3.32c0.43,0.66,1.08,1,1.94,1c0.92,0,1.59-0.33,2.02-1c0.43-0.66,0.65-1.77,0.65-3.32v-11.28h8.16v10.2
				c0,4.09-0.97,7.15-2.91,9.16c-1.94,2.02-4.55,3.03-7.84,3.03c-3.29,0-5.92-1.01-7.88-3.03c-1.97-2.02-2.95-5.07-2.95-9.16v-36.24
				c0-4.15,0.97-7.2,2.91-9.16c1.94-1.96,4.55-2.94,7.84-2.94c3.34,0,5.98,0.98,7.92,2.94c1.94,1.96,2.91,5.02,2.91,9.16v10.2h-8.16
				v-11.28C-4096.76-980.34-4096.98-981.41-4097.41-982.08z"/>
			<path class="st5" d="M-4069.68-964.66v0.17l6.87,33.92h-8.25l-4.61-26.2h-0.24l-1.21,3.48v22.72h-8.16v-58.05h8.16v15.34
				l-0.81,10.95l0.32,0.08l6.22-26.37h8.16L-4069.68-964.66z"/>
			<path class="st5" d="M-4044.94-981.83h-7.19v18.91h6.71v6.8h-6.71v18.74h7.92v6.8h-16.09v-58.05h15.36V-981.83z"/>
			<path class="st5" d="M-4021.58-981.83h-6.31v51.25h-8.16v-51.25h-6.22v-6.8h20.69V-981.83z"/>
		</g>
	</g>
	<g class="st4">
		<path class="st6" d="M-2947.13-931.66h-149.54c-2.24,0-4.06-1.82-4.06-4.06v-168.32c0-2.24,1.82-4.06,4.06-4.06h149.54
			c2.24,0,4.06,1.82,4.06,4.06v168.32C-2943.06-933.48-2944.88-931.66-2947.13-931.66z"/>
		<g>
			<path class="st5" d="M-3030.41-1051.05v0.42l14.88,49.46h-25.3l-7.44-30.07l-1.24-13.35h-0.99l-1.24,13.35l-6.94,30.07h-25.05
				l13.89-49.74v-0.42l-13.89-48.2h25.05l6.94,28.81l1.24,13.49h0.99l1.24-13.49l7.44-28.81h25.3L-3030.41-1051.05z"/>
			<path class="st5" d="M-3012.58-1076.96c0-7.7,2.26-13.39,6.8-17.06c4.53-3.67,10.75-5.5,18.65-5.5c8.16,0,14.54,1.95,19.14,5.85
				c4.6,3.9,6.9,9.93,6.9,18.09v9.91c0,2.84-0.46,5.41-1.36,7.7c-0.91,2.29-2.14,4.4-3.69,6.33c-1.55,1.93-3.3,3.69-5.25,5.3
				c-1.94,1.61-4.02,3.19-6.22,4.75c-1.94,1.38-3.86,2.78-5.73,4.2c-1.88,1.42-3.56,3.01-5.05,4.75c-1.49,1.74-2.69,3.6-3.59,5.57
				c-0.91,1.97-1.36,4.29-1.36,6.95v7.7h32.25v11.28h-51.87v-18.3c0-3.94,0.58-7.41,1.75-10.39c1.17-2.98,2.69-5.64,4.57-7.98
				c1.88-2.34,3.98-4.45,6.31-6.33c2.33-1.88,4.6-3.6,6.8-5.16c3.5-2.57,6.51-5.25,9.03-8.05c2.53-2.8,3.79-5.94,3.79-9.42v-12.79
				c0-3.3-0.52-5.57-1.55-6.81c-1.04-1.24-2.59-1.86-4.66-1.86c-2.07,0-3.59,0.57-4.57,1.72c-0.97,1.15-1.46,3.23-1.46,6.26v17.75
				h-19.62V-1076.96z"/>
			<g>
				<g>
					<path class="st5" d="M-3066.04-991.54h-5.38v50.07h-6.97v-50.07h-5.31v-6.64h17.67V-991.54z"/>
					<path class="st5" d="M-3056.1-941.47h-6.97v-56.71h6.97V-941.47z"/>
					<path class="st5" d="M-3041.81-991.78c-0.37-0.65-0.94-0.97-1.73-0.97c-0.74,0-1.29,0.32-1.66,0.97
						c-0.37,0.65-0.55,1.7-0.55,3.16v37.51c0,1.51,0.18,2.59,0.55,3.24c0.37,0.65,0.92,0.97,1.66,0.97c0.78,0,1.36-0.32,1.73-0.97
						c0.37-0.65,0.55-1.73,0.55-3.24v-11.02h6.97v9.97c0,4-0.83,6.98-2.48,8.95c-1.66,1.97-3.89,2.96-6.69,2.96
						c-2.81,0-5.05-0.99-6.73-2.96c-1.68-1.97-2.52-4.95-2.52-8.95v-35.4c0-4.05,0.83-7.03,2.48-8.95c1.66-1.92,3.89-2.88,6.69-2.88
						c2.85,0,5.11,0.96,6.76,2.88c1.66,1.92,2.48,4.9,2.48,8.95v9.97h-6.97v-11.02C-3041.26-990.08-3041.45-991.13-3041.81-991.78z"
						/>
					<path class="st5" d="M-3018.14-974.77v0.16l5.87,33.14h-7.04l-3.93-25.6h-0.21l-1.04,3.4v22.2h-6.97v-56.71h6.97v14.99
						l-0.69,10.69l0.28,0.08l5.31-25.76h6.97L-3018.14-974.77z"/>
					<path class="st5" d="M-2997.02-991.54h-6.14v18.47h5.73v6.64h-5.73v18.31h6.76v6.64h-13.73v-56.71h13.11V-991.54z"/>
					<path class="st5" d="M-2977.08-991.54h-5.38v50.07h-6.97v-50.07h-5.31v-6.64h17.67V-991.54z"/>
				</g>
				<path class="st5" d="M-2966.37-979.77v-8.37c0-1.53-0.16-2.58-0.49-3.16c-0.33-0.58-0.8-0.87-1.41-0.87
					c-0.65,0-1.14,0.29-1.47,0.87c-0.33,0.58-0.49,1.63-0.49,3.16v5.29c0,1.9,0.41,3.66,1.22,5.29c0.82,1.63,1.75,3.21,2.82,4.74
					c0.73,1,1.46,2.04,2.17,3.12c0.71,1.08,1.37,2.24,1.96,3.48c0.59,1.24,1.07,2.58,1.44,4.03c0.37,1.45,0.55,3.07,0.55,4.86v4.74
					c0,3.9-0.73,6.81-2.2,8.73c-1.47,1.92-3.49,2.88-6.06,2.88c-2.57,0-4.58-0.95-6.03-2.84c-1.45-1.9-2.17-4.82-2.17-8.77v-7.35
					h6.18v8.37c0,1.58,0.17,2.66,0.52,3.24c0.35,0.58,0.87,0.87,1.56,0.87c0.65,0,1.15-0.29,1.5-0.87c0.35-0.58,0.52-1.66,0.52-3.24
					v-5.29c0-1.05-0.14-2.05-0.43-3c-0.29-0.95-0.66-1.9-1.13-2.84c-0.47-0.95-1-1.87-1.59-2.76c-0.59-0.89-1.21-1.76-1.87-2.61
					c-0.61-0.95-1.23-1.92-1.87-2.92c-0.63-1-1.19-2.07-1.68-3.2c-0.49-1.13-0.88-2.36-1.16-3.67c-0.29-1.32-0.43-2.79-0.43-4.42
					v-4.82c0-3.9,0.72-6.79,2.17-8.69c1.45-1.9,3.44-2.84,5.97-2.84c2.53,0,4.51,0.95,5.94,2.84c1.43,1.9,2.14,4.79,2.14,8.69v7.35
					H-2966.37z"/>
			</g>
		</g>
	</g>
	<g class="st4">
		<path class="st7" d="M-2977.67,1125.72h-230.91c-3.47,0-6.28-2.81-6.28-6.28V859.53c0-3.47,2.81-6.28,6.28-6.28h230.91
			c3.47,0,6.28,2.81,6.28,6.28v259.91C-2971.4,1122.91-2974.21,1125.72-2977.67,1125.72z"/>
		<g>
			<g>
				<path class="st1" d="M-3161.75,960.94h-9.95l1.99-51.01l0.31-7.54l-0.42-0.1l-0.84,7.65l-5.55,51.01h-9.85l-5.76-51.01
					l-0.94-7.65l-0.52,0.1l0.42,7.54l1.99,51.01h-9.95v-73.32h15.29l3.77,51.33l0.42,7.12h0.52l0.31-7.12l3.35-51.33h15.4V960.94z"
					/>
				<path class="st1" d="M-3137.45,896.21h-9.32v23.88h8.69v8.59h-8.69v23.67h10.27v8.59h-20.84v-73.32h19.9V896.21z"/>
				<path class="st1" d="M-3121.85,960.94h-10.58v-73.32h10.58V960.94z"/>
				<path class="st1" d="M-3106.03,887.62v64.73h9.22v8.59h-19.8v-73.32H-3106.03z"/>
				<path class="st1" d="M-3082.67,887.62v64.73h9.22v8.59h-19.8v-73.32H-3082.67z"/>
				<path class="st1" d="M-3049.99,896.21h-9.32v23.88h8.69v8.59h-8.69v23.67h10.27v8.59h-20.84v-73.32h19.9V896.21z"/>
				<path class="st1" d="M-3017.1,947.12c0,5.24-1.29,9.11-3.88,11.63c-2.58,2.51-6.08,3.77-10.47,3.77c-4.4,0-7.91-1.27-10.53-3.82
					c-2.62-2.55-3.93-6.41-3.93-11.57v-59.5h10.58v60.86c0,1.96,0.3,3.35,0.89,4.19c0.59,0.84,1.55,1.26,2.88,1.26
					c1.33,0,2.3-0.42,2.93-1.26c0.63-0.84,0.94-2.23,0.94-4.19v-60.86h10.58V947.12z"/>
				<path class="st1" d="M-2999.71,887.62c4.61,0,8.24,1.35,10.89,4.03c2.65,2.69,3.98,6.69,3.98,11.99v10.27
					c0,3.14-0.63,5.76-1.89,7.86s-3.07,3.53-5.45,4.29v0.42c2.37,0.77,4.19,2.2,5.45,4.29s1.89,4.75,1.89,7.96v11.73
					c0,1.05,0.02,2.01,0.05,2.88c0.03,0.87,0.07,1.69,0.1,2.46c0.03,0.77,0.1,1.52,0.21,2.25c0.1,0.73,0.26,1.55,0.47,2.46v0.42
					h-10.58c-0.28-1.95-0.49-3.65-0.63-5.08c-0.14-1.43-0.21-3.23-0.21-5.39v-14.46c0-1.95-0.35-3.35-1.05-4.19
					c-0.7-0.84-1.78-1.26-3.25-1.26h-2.62v30.38h-10.58v-73.32H-2999.71z M-3002.33,922.08h2.62c1.47,0,2.55-0.42,3.25-1.26
					c0.7-0.84,1.05-2.23,1.05-4.19v-15.08c0-1.95-0.35-3.33-1.05-4.14c-0.7-0.8-1.78-1.2-3.25-1.2h-2.62V922.08z"/>
			</g>
			<g>
				<path class="st1" d="M-3156.84,1065.41c0,8.59-2.06,15.06-6.18,19.41c-4.12,4.35-9.88,6.53-17.3,6.53
					c-7.53,0-13.36-2.18-17.47-6.53c-4.12-4.35-6.18-10.82-6.18-19.41v-77.13c0-8.47,2.06-14.88,6.18-19.24
					c4.12-4.35,9.94-6.53,17.47-6.53c7.53,0,13.33,2.15,17.39,6.44c4.06,4.3,6.09,10.74,6.09,19.33V1065.41z M-3176.08,979.02
					c-0.94-1.35-2.41-2.03-4.41-2.03c-2,0-3.44,0.68-4.32,2.03c-0.88,1.35-1.32,3.68-1.32,6.97v81.72c0,3.3,0.44,5.65,1.32,7.06
					c0.88,1.41,2.32,2.12,4.32,2.12c2,0,3.47-0.71,4.41-2.12c0.94-1.41,1.41-3.76,1.41-7.06v-81.72
					C-3174.67,982.7-3175.14,980.37-3176.08,979.02z"/>
				<path class="st1" d="M-3116.07,979.64h-15.71v41.12h13.41v14.47h-13.41v53.48h-17.83V965.16h33.53V979.64z"/>
				<path class="st1" d="M-3077.07,979.64h-15.71v41.12h13.41v14.47h-13.41v53.48h-17.83V965.16h33.53V979.64z"/>
				<path class="st1" d="M-3049.36,965.16c7.77,0,13.88,2.27,18.36,6.79c4.47,4.53,6.71,11.27,6.71,20.21v17.3
					c0,5.29-1.06,9.71-3.18,13.24s-5.18,5.94-9.18,7.24v0.71c4,1.3,7.06,3.71,9.18,7.24c2.12,3.53,3.18,8,3.18,13.41v19.77
					c0,1.76,0.03,3.38,0.09,4.85c0.06,1.47,0.12,2.85,0.18,4.15c0.06,1.3,0.18,2.56,0.35,3.79c0.18,1.24,0.44,2.62,0.79,4.15v0.71
					h-17.83c-0.47-3.29-0.82-6.15-1.06-8.56c-0.24-2.41-0.35-5.44-0.35-9.09v-24.36c0-3.29-0.59-5.65-1.77-7.06
					c-1.18-1.41-3-2.12-5.47-2.12h-4.41v51.18h-17.83V965.16H-3049.36z M-3053.77,1023.23h4.41c2.47,0,4.29-0.71,5.47-2.12
					c1.18-1.41,1.77-3.76,1.77-7.06v-25.42c0-3.29-0.59-5.62-1.77-6.97c-1.18-1.35-3-2.03-5.47-2.03h-4.41V1023.23z"/>
				<path class="st1" d="M-2983.88,979.64h-15.71v40.24h14.65v14.47h-14.65v39.89h17.3v14.47h-35.12V965.16h33.53V979.64z"/>
			</g>
		</g>
	</g>
	<g class="st4">
		<path class="st7" d="M-1709.92-926.49h-149.54c-2.24,0-4.06-1.82-4.06-4.06v-168.32c0-2.24,1.82-4.06,4.06-4.06h149.54
			c2.24,0,4.06,1.82,4.06,4.06v168.32C-1705.85-928.31-1707.67-926.49-1709.92-926.49z"/>
		<g>
			<g>
				<path class="st1" d="M-1829.13-1033.21h-6.44l1.29-33.04l0.2-4.88l-0.27-0.07l-0.54,4.95l-3.6,33.04h-6.38l-3.73-33.04
					l-0.61-4.95l-0.34,0.07l0.27,4.88l1.29,33.04h-6.44v-47.49h9.9l2.44,33.24l0.27,4.61h0.34l0.2-4.61l2.17-33.24h9.97V-1033.21z"
					/>
				<path class="st1" d="M-1813.39-1075.13h-6.04v15.47h5.63v5.56h-5.63v15.33h6.65v5.56h-13.5v-47.49h12.89V-1075.13z"/>
				<path class="st1" d="M-1803.29-1033.21h-6.85v-47.49h6.85V-1033.21z"/>
				<path class="st1" d="M-1793.04-1080.69v41.92h5.97v5.56h-12.82v-47.49H-1793.04z"/>
				<path class="st1" d="M-1777.92-1080.69v41.92h5.97v5.56h-12.82v-47.49H-1777.92z"/>
				<path class="st1" d="M-1756.75-1075.13h-6.04v15.47h5.63v5.56h-5.63v15.33h6.65v5.56h-13.5v-47.49h12.89V-1075.13z"/>
				<path class="st1" d="M-1735.45-1042.16c0,3.39-0.84,5.9-2.51,7.53c-1.67,1.63-3.93,2.44-6.78,2.44c-2.85,0-5.12-0.83-6.82-2.48
					c-1.7-1.65-2.54-4.15-2.54-7.5v-38.53h6.85v39.41c0,1.27,0.19,2.17,0.58,2.71c0.38,0.54,1.01,0.81,1.87,0.81
					c0.86,0,1.49-0.27,1.9-0.81c0.41-0.54,0.61-1.45,0.61-2.71v-39.41h6.85V-1042.16z"/>
				<path class="st1" d="M-1724.19-1080.69c2.98,0,5.34,0.87,7.05,2.61c1.72,1.74,2.58,4.33,2.58,7.77v6.65
					c0,2.04-0.41,3.73-1.22,5.09c-0.81,1.36-1.99,2.28-3.53,2.78v0.27c1.54,0.5,2.71,1.42,3.53,2.78c0.81,1.36,1.22,3.08,1.22,5.16
					v7.6c0,0.68,0.01,1.3,0.03,1.87c0.02,0.57,0.04,1.1,0.07,1.59c0.02,0.5,0.07,0.98,0.14,1.46c0.07,0.47,0.17,1.01,0.31,1.59v0.27
					h-6.85c-0.18-1.27-0.32-2.36-0.41-3.29c-0.09-0.93-0.14-2.09-0.14-3.49v-9.36c0-1.27-0.23-2.17-0.68-2.71
					c-0.45-0.54-1.15-0.81-2.1-0.81h-1.7v19.67h-6.85v-47.49H-1724.19z M-1725.89-1058.37h1.7c0.95,0,1.65-0.27,2.1-0.81
					c0.45-0.54,0.68-1.45,0.68-2.71v-9.77c0-1.27-0.23-2.16-0.68-2.68c-0.45-0.52-1.15-0.78-2.1-0.78h-1.7V-1058.37z"/>
			</g>
			<g>
				<path class="st1" d="M-1825.95-965.55c0,5.56-1.33,9.75-4,12.57c-2.67,2.82-6.4,4.23-11.2,4.23c-4.88,0-8.65-1.41-11.32-4.23
					c-2.67-2.82-4-7.01-4-12.57v-49.95c0-5.49,1.33-9.64,4-12.46c2.67-2.82,6.44-4.23,11.32-4.23c4.88,0,8.63,1.39,11.26,4.17
					c2.63,2.78,3.94,6.95,3.94,12.52V-965.55z M-1838.41-1021.5c-0.61-0.88-1.56-1.31-2.86-1.31c-1.3,0-2.23,0.44-2.8,1.31
					c-0.57,0.88-0.86,2.38-0.86,4.52v52.92c0,2.13,0.29,3.66,0.86,4.57c0.57,0.91,1.5,1.37,2.8,1.37c1.29,0,2.25-0.46,2.86-1.37
					c0.61-0.91,0.91-2.44,0.91-4.57v-52.92C-1837.49-1019.12-1837.8-1020.62-1838.41-1021.5z"/>
				<path class="st1" d="M-1799.55-1021.1h-10.17v26.63h8.69v9.37h-8.69v34.63h-11.54v-80.01h21.72V-1021.1z"/>
				<path class="st1" d="M-1774.29-1021.1h-10.17v26.63h8.69v9.37h-8.69v34.63H-1796v-80.01h21.72V-1021.1z"/>
				<path class="st1" d="M-1756.34-1030.47c5.03,0,8.99,1.47,11.89,4.4c2.9,2.93,4.34,7.3,4.34,13.09v11.2
					c0,3.43-0.69,6.29-2.06,8.57c-1.37,2.29-3.35,3.85-5.94,4.69v0.46c2.59,0.84,4.57,2.4,5.94,4.69s2.06,5.18,2.06,8.69v12.8
					c0,1.14,0.02,2.19,0.06,3.14c0.04,0.95,0.07,1.85,0.11,2.69c0.04,0.84,0.11,1.66,0.23,2.46c0.11,0.8,0.29,1.7,0.51,2.69v0.46
					h-11.54c-0.31-2.13-0.53-3.98-0.69-5.54c-0.15-1.56-0.23-3.52-0.23-5.89v-15.77c0-2.13-0.38-3.66-1.14-4.57
					c-0.76-0.91-1.94-1.37-3.54-1.37h-2.86v33.15h-11.54v-80.01H-1756.34z M-1759.2-992.87h2.86c1.6,0,2.78-0.46,3.54-1.37
					c0.76-0.91,1.14-2.44,1.14-4.57v-16.46c0-2.13-0.38-3.64-1.14-4.52c-0.76-0.88-1.94-1.31-3.54-1.31h-2.86V-992.87z"/>
				<path class="st1" d="M-1713.94-1021.1h-10.17v26.06h9.49v9.37h-9.49v25.83h11.2v9.37h-22.75v-80.01h21.72V-1021.1z"/>
			</g>
		</g>
	</g>
	<path class="st3" d="M-1881.93-928.69h-149.54c-2.24,0-4.06-1.82-4.06-4.06v-168.32c0-2.24,1.82-4.06,4.06-4.06h149.54
		c2.24,0,4.06,1.82,4.06,4.06v168.32C-1877.87-930.51-1879.69-928.69-1881.93-928.69z"/>
	<path class="st9" d="M-1965.21-1048.07v0.42l14.88,49.46h-25.3l-7.44-30.07l-1.24-13.35h-0.99l-1.24,13.35l-6.94,30.07h-25.05
		l13.89-49.74v-0.42l-13.89-48.2h25.05l6.94,28.81l1.24,13.49h0.99l1.24-13.49l7.44-28.81h25.3L-1965.21-1048.07z"/>
	<g class="st4">
		<g>
			<path class="st5" d="M-2000.84-988.56h-5.38v50.07h-6.97v-50.07h-5.31v-6.64h17.67V-988.56z"/>
			<path class="st5" d="M-1990.9-938.49h-6.97v-56.71h6.97V-938.49z"/>
			<path class="st5" d="M-1976.62-988.8c-0.37-0.65-0.94-0.97-1.73-0.97c-0.74,0-1.29,0.32-1.66,0.97c-0.37,0.65-0.55,1.7-0.55,3.16
				v37.51c0,1.51,0.18,2.59,0.55,3.24c0.37,0.65,0.92,0.97,1.66,0.97c0.78,0,1.36-0.32,1.73-0.97c0.37-0.65,0.55-1.73,0.55-3.24
				v-11.02h6.97v9.97c0,4-0.83,6.98-2.48,8.95c-1.66,1.97-3.89,2.96-6.69,2.96c-2.81,0-5.05-0.99-6.73-2.96
				c-1.68-1.97-2.52-4.95-2.52-8.95v-35.4c0-4.05,0.83-7.03,2.48-8.95c1.66-1.92,3.89-2.88,6.69-2.88c2.85,0,5.11,0.96,6.76,2.88
				c1.66,1.92,2.48,4.9,2.48,8.95v9.97h-6.97v-11.02C-1976.06-987.1-1976.25-988.16-1976.62-988.8z"/>
			<path class="st5" d="M-1952.94-971.79v0.16l5.87,33.14h-7.04l-3.93-25.6h-0.21l-1.04,3.4v22.2h-6.97v-56.71h6.97v14.99
				l-0.69,10.69l0.28,0.08l5.31-25.76h6.97L-1952.94-971.79z"/>
			<path class="st5" d="M-1931.83-988.56h-6.14v18.47h5.73v6.64h-5.73v18.31h6.76v6.64h-13.73v-56.71h13.11V-988.56z"/>
			<path class="st5" d="M-1911.88-988.56h-5.38v50.07h-6.97v-50.07h-5.31v-6.64h17.67V-988.56z"/>
		</g>
		<path class="st5" d="M-1901.18-976.8v-8.37c0-1.53-0.16-2.58-0.49-3.16c-0.33-0.58-0.8-0.87-1.41-0.87
			c-0.65,0-1.14,0.29-1.47,0.87c-0.33,0.58-0.49,1.63-0.49,3.16v5.29c0,1.9,0.41,3.66,1.22,5.29c0.82,1.63,1.75,3.21,2.82,4.74
			c0.73,1,1.46,2.04,2.17,3.12c0.71,1.08,1.37,2.24,1.96,3.48c0.59,1.24,1.07,2.58,1.44,4.03c0.37,1.45,0.55,3.07,0.55,4.86v4.74
			c0,3.9-0.73,6.81-2.2,8.73c-1.47,1.92-3.49,2.88-6.06,2.88s-4.58-0.95-6.03-2.84c-1.45-1.9-2.17-4.82-2.17-8.77v-7.35h6.18v8.37
			c0,1.58,0.17,2.66,0.52,3.24c0.35,0.58,0.87,0.87,1.56,0.87c0.65,0,1.15-0.29,1.5-0.87c0.35-0.58,0.52-1.66,0.52-3.24v-5.29
			c0-1.05-0.14-2.05-0.43-3c-0.29-0.95-0.66-1.9-1.13-2.84c-0.47-0.95-1-1.87-1.59-2.76c-0.59-0.89-1.21-1.76-1.87-2.61
			c-0.61-0.95-1.23-1.92-1.87-2.92c-0.63-1-1.19-2.07-1.68-3.2c-0.49-1.13-0.88-2.36-1.16-3.67c-0.29-1.32-0.43-2.79-0.43-4.42
			v-4.82c0-3.9,0.72-6.79,2.17-8.69c1.45-1.9,3.44-2.84,5.97-2.84c2.53,0,4.51,0.95,5.94,2.84c1.43,1.9,2.14,4.79,2.14,8.69v7.35
			H-1901.18z"/>
	</g>
	<path class="st9" d="M-1894.87-1062.33c0,3.41-0.7,6.2-2.11,8.35c-1.41,2.16-3.92,3.73-7.53,4.72v0.54
		c3.62,0.99,6.13,2.47,7.53,4.45c1.41,1.98,2.11,4.67,2.11,8.08v18.33c0,6.56-2.31,11.48-6.93,14.75
		c-4.62,3.28-11.22,4.92-19.79,4.92c-8.57,0-15.2-1.66-19.89-4.99c-4.69-3.32-7.03-8.22-7.03-14.69v-18.06h20.29v19.81
		c0,2.52,0.5,4.29,1.51,5.32c1,1.03,2.64,1.55,4.92,1.55c2.28,0,3.95-0.52,5.02-1.55c1.07-1.03,1.61-2.81,1.61-5.32v-18.46
		c0-3.41-0.6-5.73-1.81-6.94c-1.21-1.21-3.55-1.82-7.03-1.82h-4.62v-11.05h4.62c3.35,0,5.66-0.61,6.93-1.82
		c1.27-1.21,1.91-3.48,1.91-6.8v-15.63c0-2.51-0.54-4.29-1.61-5.32c-1.07-1.03-2.75-1.55-5.02-1.55c-2.28,0-3.92,0.52-4.92,1.55
		c-1,1.03-1.51,2.81-1.51,5.32v16.98h-20.29v-15.23c0-6.47,2.34-11.36,7.03-14.69c4.69-3.32,11.32-4.99,19.89-4.99
		c8.57,0,15.17,1.64,19.79,4.92c4.62,3.28,6.93,8.2,6.93,14.75V-1062.33z"/>
	<g class="st4">
		<path class="st1" d="M-3454.05,2207.52h-28.5l5.7-146.1l0.9-21.6l-1.2-0.3l-2.4,21.9l-15.9,146.1h-28.2l-16.5-146.1l-2.7-21.9
			l-1.5,0.3l1.2,21.6l5.7,146.1h-28.5v-210h43.8l10.8,147l1.2,20.4h1.5l0.9-20.4l9.6-147h44.1V2207.52z"/>
		<path class="st1" d="M-3384.45,2022.11h-26.7v68.4h24.9v24.6h-24.9v67.8h29.4v24.6h-59.7v-210h57V2022.11z"/>
		<path class="st1" d="M-3339.75,2207.52h-30.3v-210h30.3V2207.52z"/>
		<path class="st1" d="M-3294.46,1997.52v185.4h26.4v24.6h-56.7v-210H-3294.46z"/>
		<path class="st1" d="M-3227.56,1997.52v185.4h26.4v24.6h-56.7v-210H-3227.56z"/>
		<path class="st1" d="M-3133.96,2022.11h-26.7v68.4h24.9v24.6h-24.9v67.8h29.4v24.6h-59.7v-210h57V2022.11z"/>
		<path class="st1" d="M-3039.76,2167.92c0,15-3.7,26.1-11.1,33.3c-7.4,7.2-17.4,10.8-30,10.8c-12.6,0-22.65-3.65-30.15-10.95
			c-7.5-7.3-11.25-18.35-11.25-33.15v-170.4h30.3v174.3c0,5.6,0.85,9.6,2.55,12c1.7,2.4,4.45,3.6,8.25,3.6c3.8,0,6.6-1.2,8.4-3.6
			c1.8-2.4,2.7-6.4,2.7-12v-174.3h30.3V2167.92z"/>
		<path class="st1" d="M-2989.96,1997.52c13.2,0,23.6,3.85,31.2,11.55c7.6,7.7,11.4,19.15,11.4,34.35v29.4c0,9-1.8,16.5-5.4,22.5
			s-8.8,10.1-15.6,12.3v1.2c6.8,2.2,12,6.3,15.6,12.3s5.4,13.6,5.4,22.8v33.6c0,3,0.05,5.75,0.15,8.25c0.1,2.5,0.2,4.85,0.3,7.05
			c0.1,2.2,0.3,4.35,0.6,6.45s0.75,4.45,1.35,7.05v1.2h-30.3c-0.8-5.6-1.4-10.45-1.8-14.55c-0.4-4.1-0.6-9.25-0.6-15.45v-41.4
			c0-5.6-1-9.6-3-12c-2-2.4-5.1-3.6-9.3-3.6h-7.5v87h-30.3v-210H-2989.96z M-2997.46,2096.22h7.5c4.2,0,7.3-1.2,9.3-3.6
			c2-2.4,3-6.4,3-12v-43.2c0-5.6-1-9.55-3-11.85c-2-2.3-5.1-3.45-9.3-3.45h-7.5V2096.22z"/>
		<path class="st1" d="M-2878.67,2022.11h-26.7v68.4h24.9v24.6h-24.9v67.8h29.4v24.6h-59.7v-210h57V2022.11z"/>
	</g>
	<g class="st4">
		<path class="st10" d="M2130.21-450.08c-0.88-28.46-6.9-42.68-17.97-44.75c-11.88-2.22-23.77-5.26-35.66-6.52
			c-82.36-8.67-164.72-18.31-247.09-25.02c-89.16-7.25-178.31-3.15-267.44,3.99c-52.05,2.19-104.07,6.72-156.02,15.96
			c-10.12,1.8-17.28,10.81-18.58,39.18c-1.93,42.07-1.47,83.83,1.34,125.52c1.23,18.11,6.08,25.74,12.7,28.15
			c47.57,17.35,95.52,25.15,143.41,33.84c69.31,12.57,138.65,27.45,208.07,32.39c71.46,5.08,142.85-11.27,214.15-23.39
			c47.23-8.03,94.43-17.37,141.63-25.88c9.31-1.67,16.27-10,18.47-34.98C2130.66-370.72,2131.44-410.17,2130.21-450.08z
			 M2038.83-450.38c0.54-1.18,2.16-2.06,3.29-2.11c5.46-0.21,10.93-0.09,16.4-0.09c0.29,0.73,0.59,1.46,0.88,2.19
			c-6.8,8.81-13.25,18.19-20.6,26.1c-2.58,2.78-7.37,1.98-12.82,3.2C2030.85-432.27,2034.73-441.4,2038.83-450.38z M1620.87-450.51
			c0.48-1.05,1.8-1.95,2.75-1.97c5.66-0.19,11.32-0.09,16.98-0.09c0.25,0.74,0.51,1.5,0.75,2.24c-6.83,8.8-13.31,18.16-20.69,26.07
			c-2.58,2.77-7.35,1.95-12.78,3.11C1612.82-432.39,1616.77-441.51,1620.87-450.51z M1515.69-350.67
			c-19.27,8.9-39.17,7.42-59.63,7.17c0.45-2.41,0.72-4.52,1.25-6.52c7.78-29.37,15.67-58.68,23.31-88.11
			c1.18-4.56,2.72-6.47,6.47-6.27c7.03,0.38,14.08,0.11,22,0.11c-7.62,28.69-14.93,56.23-22.67,85.42c4.66-0.9,8.62-1.01,12.27-2.49
			c22.14-8.9,37.11-27.54,42.72-57.81c2.94-15.89-0.8-36.55-19.58-37.15c-23.32-0.75-46.66-0.71-70-0.99
			c-2.23-0.04-4.46-0.01-7.8-0.01c3.74-8.26,6.83-15.43,10.23-22.33c0.63-1.26,2.55-1.96,3.87-1.97
			c25.08-0.08,50.14-0.15,75.21,0.13c3.94,0.05,7.95,1.45,11.79,2.85c22.98,8.39,32.68,32.29,24.72,62.06
			C1560.63-382.09,1540.94-362.33,1515.69-350.67z M2071.27-343.65c-19.1,0.22-38.21-0.5-57.32-1.03
			c-8.67-0.24-15.33-6.52-21.61-13.63c0.01,0.02,0.01,0.04,0.01,0.06h-0.14c-1.37,8.83-6.33,14.51-14.31,14.75
			c-14.36,0.41-28.72,0.46-43.07-0.13c-3.2-0.14-6.31-3.56-10.55-6.14c-5.62,7.51-14.3,6.53-22.85,6.45
			c-7.48-0.08-14.94,0.14-22.4-0.08c-7.18-0.2-10.12-5.33-8.17-14.5c1.38-6.54,3.29-12.9,4.27-20.28
			c-6.4,7.2-13.03,14.09-19.15,21.71c-9.18,11.44-19.71,15.69-32.36,12.34c0.26-2.09,0.53-4.22,0.93-7.45
			c-8.63,10.67-18.84,8.42-28.5,7.88c-9.41-0.54-20.11,4.95-28.05-8.34c-5.41,5.99-11.53,10.54-19.22,10.3
			c-7.78-0.22-13.44-4.88-17.72-13.92c-5.67,12.13-14.37,12.56-23.39,12.38c-11.22-0.22-11.25-0.07-15.42,13.95
			c-4.45,14.94-12.66,23.7-24.5,26.68c-14.54,3.65-25.57-10.95-22.91-30.43c0.44-3.2,1.13-6.33,1.84-10.26
			c-13.94,0-27.49,0.35-41.04-0.17c-6.04-0.24-12.27-1.24-18.01-3.63c-15.52-6.44-20.08-30.05-9.38-46.51
			c6.35-9.77,14.81-14.9,24.08-15.76c9.84-0.92,19.83,0.13,29.7,1.14c3.24,0.33,6.56,2.75,9.42,5.09c5.16,4.21,7.06,11.85,4.9,19.24
			c-1.99,6.85-5.31,11.24-11.67,10.52c-6.07-0.68-12.23-0.14-19.35-0.14c2.5-7.05,4.72-13.28,7.47-21.01
			c-4.87,0-9.13-0.26-13.33,0.19c-1.1,0.12-2.55,2.22-2.99,3.82c-1.93,6.86-3.57,13.85-5.26,20.84c-1.34,5.62,0.64,8.78,4.63,9.94
			c2.04,0.59,4.19,0.77,6.28,0.74c18.75-0.19,37.5-0.58,56.25-0.59c3.47,0,4.95-1.51,6.06-5.81c3.44-13.42,7.13-26.73,11.07-39.9
			c0.62-2.06,2.99-4.41,4.63-4.52c7.44-0.48,14.9-0.21,23.24-0.21c-4.46,16.95-8.73,33.26-13.22,50.37h29.05
			c0.2-4.94,0.02-10,0.66-14.88c2.52-19.38,15.06-33.98,31.81-35.13c15.82-1.07,31.71-0.22,48.3-0.22
			c-4.52,16.71-8.87,32.79-13.61,50.27c10.16,0,19.59,0.19,29.02-0.25c1.12-0.05,2.58-3.28,3.16-5.38
			c3.61-13.08,7.11-26.2,10.4-39.41c0.98-3.94,2.22-5.67,5.58-5.49c7.26,0.4,14.54,0.13,22.6,0.13c-2.49,9.7-4.82,18.82-7.16,27.93
			c0.31,0.33,0.61,0.66,0.92,0.99c6.24-6.78,12.5-13.52,18.71-20.35c6.34-6.96,13.22-11.98,21.79-11.65c4.69,0.18,7.23,3.18,7,9.4
			c-0.14,3.73-0.62,7.56-1.51,11.09c-2.69,10.8-5.66,21.47-8.87,33.53c9.31,0,18.19,0.07,27.07-0.13c0.8-0.02,1.99-1.62,2.32-2.81
			c2.89-10.4,5.61-20.87,8.68-32.41h-10.82c0.57-11.42,2.56-15.69,9.37-18.3c11.28-4.3,19.02-14.24,24.04-27.51
			c3.07-8.09,6.9-11.15,13.33-9.64c1.47,0.34,3.03,0.05,5.4,0.05c-3.44,13.41-6.71,26.13-10.2,39.73h18.04
			c-2,9.86-6.99,15.19-15.41,15.04c-5.57-0.09-8.19,2.52-9.61,9.46c-1.72,8.49-4.15,16.73-6.86,27.39h38.84
			c0.01-0.06,0.02-0.11,0.04-0.17c0.04,0.04,0.07,0.07,0.09,0.11c-0.59-5.19-1.77-10.41-1.66-15.57
			c0.26-11.68,4.3-21.23,11.96-27.03c17.44-13.2,35.96-12.45,54.18-4.14c9.87,4.49,11.2,20.05,3.55,28.93
			c-0.96,1.11-2.23,2.41-3.37,2.44c-7.58,0.22-15.16,0.12-23.65,0.12c2.63-7.36,4.87-13.61,7.55-21.1c-4.77,0-8.72-0.32-12.61,0.18
			c-1.32,0.18-3.14,2.08-3.63,3.75c-2.02,6.81-3.67,13.82-5.34,20.81c-1.44,6,0.67,9.35,5.01,10.2c3.21,0.62,6.48,0.7,9.73,0.71
			c17,0.06,33.99,0.02,51.06,0.02C2084.24-350.41,2079-343.74,2071.27-343.65z"/>
		<path class="st10" d="M1779.78-394.11c-2.99,11.11-5.88,20.69-8.14,30.52c-1.36,5.93-4.48,4.76-7.3,4.09
			c-3.49-0.83-7.24-2.94-6.38-8.71c1.18-7.89,3.2-15.59,5.16-23.21c0.33-1.29,2.28-2.46,3.54-2.57
			C1770.64-394.33,1774.65-394.11,1779.78-394.11z"/>
		<path class="st10" d="M1669.54-342.26c-2.37,8.75-4.54,16.81-6.85,25.36C1656.97-326.45,1660.13-338.41,1669.54-342.26z"/>
	</g>
</g>
<g id="Layer_5">
	<path class="st11" d="M1729.04,1848.87H290.22c-21.6,0-39.1-17.51-39.1-39.1V190.23c0-21.6,17.51-39.1,39.1-39.1h1438.82
		c21.6,0,39.1,17.51,39.1,39.1v1619.54C1768.14,1831.36,1750.63,1848.87,1729.04,1848.87z"/>
	<g>
		<g>
			<g>
				<path class="st10" d="M412.01,316.6v348.43h49.61v46.23H355.06V316.6H412.01z"/>
				<path class="st10" d="M542.24,711.26H485.3V316.6h56.94V711.26z"/>
				<path class="st10" d="M603.13,711.26L563.1,316.6h56.94l16.91,273.45l2.26,40.59h2.26l2.26-40.59l16.91-273.45h56.94
					l-40.03,394.66H603.13z"/>
				<path class="st10" d="M804.97,316.6c24.81,0,44.35,7.24,58.64,21.71c14.28,14.47,21.42,36,21.42,64.56v55.25
					c0,16.91-3.38,31.01-10.15,42.29c-6.77,11.28-16.54,18.98-29.32,23.12v2.25c12.77,4.14,22.55,11.84,29.32,23.12
					c6.77,11.28,10.15,25.56,10.15,42.85v63.15c0,5.64,0.09,10.81,0.28,15.5c0.18,4.7,0.37,9.12,0.56,13.25
					c0.19,4.14,0.56,8.18,1.13,12.12c0.56,3.95,1.41,8.37,2.54,13.25v2.26H832.6c-1.51-10.52-2.63-19.64-3.38-27.34
					c-0.76-7.7-1.13-17.38-1.13-29.04v-77.8c0-10.52-1.88-18.04-5.64-22.55c-3.76-4.51-9.58-6.77-17.48-6.77h-14.1v163.5h-56.94
					V316.6H804.97z M790.87,502.09h14.1c7.89,0,13.72-2.26,17.48-6.77c3.75-4.51,5.64-12.02,5.64-22.55v-81.19
					c0-10.52-1.88-17.94-5.64-22.27c-3.76-4.32-9.58-6.48-17.48-6.48h-14.1V502.09z"/>
				<path class="st10" d="M1049.66,711.26h-56.94L975.8,437.82l-2.26-40.59h-2.26l-2.26,40.59l-16.91,273.45h-56.94l40.03-394.66
					h74.42L1049.66,711.26z M930.69,572.57h84.01v46.23h-84.01V572.57z"/>
				<path class="st10" d="M1127.46,711.26h-56.94V316.6h56.94V711.26z"/>
				<path class="st10" d="M1248.68,442.89v-59.76c0-10.9-1.51-18.41-4.51-22.55c-3.01-4.13-7.33-6.2-12.97-6.2
					c-6.02,0-10.53,2.07-13.53,6.2c-3.01,4.14-4.51,11.66-4.51,22.55v37.78c0,13.53,3.75,26.13,11.28,37.78
					c7.51,11.66,16.16,22.93,25.94,33.83c6.77,7.14,13.43,14.57,20.02,22.27c6.57,7.71,12.59,15.98,18.04,24.81
					c5.44,8.84,9.87,18.42,13.25,28.75c3.38,10.34,5.07,21.9,5.07,34.67v33.83c0,27.82-6.77,48.58-20.3,62.3
					c-13.53,13.72-32.14,20.58-55.82,20.58c-23.68,0-42.2-6.77-55.54-20.3c-13.35-13.53-20.01-34.39-20.01-62.58v-52.43h56.94v59.76
					c0,11.28,1.59,18.98,4.79,23.12c3.19,4.14,7.98,6.2,14.38,6.2c6.01,0,10.62-2.06,13.81-6.2c3.19-4.13,4.79-11.84,4.79-23.12
					v-37.77c0-7.51-1.32-14.66-3.95-21.43c-2.63-6.76-6.11-13.53-10.43-20.3c-4.33-6.77-9.21-13.34-14.66-19.73
					c-5.45-6.39-11.19-12.59-17.2-18.61c-5.64-6.77-11.37-13.72-17.2-20.86c-5.83-7.14-10.99-14.75-15.5-22.83
					c-4.51-8.08-8.09-16.82-10.71-26.22c-2.63-9.39-3.95-19.92-3.95-31.57v-34.39c0-27.81,6.67-48.49,20.01-62.02
					c13.34-13.53,31.66-20.3,54.97-20.3c23.3,0,41.53,6.77,54.69,20.3c13.15,13.53,19.73,34.21,19.73,62.02v52.43H1248.68z"/>
				<path class="st10" d="M1479.83,636.84c0,27.44-6.58,48.12-19.73,62.02c-13.16,13.9-31.57,20.86-55.25,20.86
					c-24.06,0-42.66-6.96-55.82-20.86c-13.16-13.9-19.73-34.58-19.73-62.02V390.46c0-27.06,6.57-47.54,19.73-61.45
					c13.15-13.9,31.76-20.86,55.82-20.86c24.05,0,42.57,6.86,55.53,20.58c12.97,13.72,19.45,34.3,19.45,61.74V636.84z
					 M1418.38,360.86c-3.01-4.32-7.71-6.48-14.1-6.48c-6.4,0-10.99,2.17-13.81,6.48c-2.82,4.33-4.23,11.75-4.23,22.27v261.04
					c0,10.53,1.41,18.04,4.23,22.55c2.82,4.51,7.42,6.77,13.81,6.77c6.39,0,11.08-2.25,14.1-6.77c3-4.51,4.51-12.02,4.51-22.55
					V383.13C1422.89,372.61,1421.38,365.18,1418.38,360.86z"/>
				<path class="st10" d="M1664.19,711.26h-68.78l-42.29-260.48l-6.77-40.59h-2.82l3.38,40.59l12.97,260.48h-56.94V316.6h68.78
					l42.29,252.02l6.2,40.59l2.82-0.56l-2.82-40.59l-12.97-251.46h56.94V711.26z"/>
			</g>
			<g>
				<path class="st10" d="M550.24,1188.8c0,38.83-8.75,68.09-26.23,87.76c-17.49,19.67-41.97,29.52-73.44,29.52
					c-31.98,0-56.71-9.85-74.19-29.52c-17.49-19.67-26.23-48.93-26.23-87.76V840.16c0-38.29,8.74-67.28,26.23-86.96
					c17.48-19.67,42.21-29.52,74.19-29.52c31.97,0,56.58,9.71,73.82,29.12c17.24,19.42,25.86,48.54,25.86,87.36V1188.8z
					 M468.55,798.28c-4-6.11-10.25-9.17-18.74-9.17c-8.5,0-14.61,3.07-18.36,9.17c-3.75,6.12-5.62,16.63-5.62,31.51v369.38
					c0,14.9,1.87,25.53,5.62,31.91c3.75,6.38,9.86,9.57,18.36,9.57c8.49,0,14.73-3.19,18.74-9.57c3.99-6.38,6-17.02,6-31.91V829.79
					C474.55,814.91,472.55,804.4,468.55,798.28z"/>
				<path class="st10" d="M723.35,801.07h-66.7v185.89h56.96v65.42h-56.96v241.73h-75.69V735.65h142.39V801.07z"/>
				<path class="st10" d="M888.97,801.07h-66.7v185.89h56.96v65.42h-56.96v241.73h-75.69V735.65h142.39V801.07z"/>
				<path class="st10" d="M1054.59,801.07h-66.7v181.9h62.2v65.42h-62.2v180.3h73.44v65.42H912.2V735.65h142.39V801.07z"/>
				<path class="st10" d="M1178.99,735.65c32.97,0,58.95,10.25,77.94,30.71c18.98,20.48,28.48,50.93,28.48,91.35v78.18
					c0,23.93-4.5,43.88-13.49,59.83c-8.99,15.96-21.99,26.86-38.97,32.71v3.19c16.98,5.86,29.98,16.75,38.97,32.71
					c8.99,15.96,13.49,36.17,13.49,60.63v89.35c0,7.98,0.12,15.29,0.38,21.94c0.25,6.66,0.49,12.9,0.75,18.75
					c0.25,5.86,0.75,11.57,1.5,17.15s1.87,11.84,3.37,18.75v3.19h-75.69c-2-14.88-3.5-27.79-4.5-38.69
					c-1.01-10.9-1.5-24.59-1.5-41.09v-110.1c0-14.88-2.51-25.53-7.49-31.91c-5-6.38-12.74-9.57-23.23-9.57h-18.74v231.36h-75.69
					V735.65H1178.99z M1160.25,998.13h18.74c10.49,0,18.23-3.19,23.23-9.57c4.99-6.38,7.49-17.02,7.49-31.91V841.76
					c0-14.88-2.51-25.39-7.49-31.51c-5-6.11-12.74-9.17-23.23-9.17h-18.74V998.13z"/>
				<path class="st10" d="M1493.75,801.07h-58.46v493.04h-75.69V801.07h-57.71v-65.42h191.85V801.07z"/>
				<path class="st10" d="M1662.36,801.07h-66.7v181.9h62.2v65.42h-62.2v180.3h73.44v65.42h-149.14V735.65h142.39V801.07z"/>
			</g>
			<g>
				<path class="st10" d="M513.28,1455.93c0,12.56-2.07,22.8-6.22,30.73c-4.15,7.93-11.55,13.72-22.22,17.35v1.98
					c10.67,3.64,18.07,9.09,22.22,16.36c4.15,7.27,6.22,17.19,6.22,29.74v67.41c0,24.12-6.81,42.22-20.44,54.27
					c-13.63,12.06-33.09,18.09-58.37,18.09c-25.29,0-44.84-6.12-58.66-18.34c-13.83-12.22-20.74-30.23-20.74-54.03v-66.42h59.85
					v72.86c0,9.25,1.48,15.78,4.44,19.58c2.96,3.8,7.8,5.7,14.52,5.7c6.71,0,11.65-1.9,14.81-5.7c3.16-3.79,4.74-10.32,4.74-19.58
					v-67.9c0-12.55-1.78-21.07-5.33-25.53c-3.56-4.46-10.47-6.69-20.74-6.69h-13.63v-40.64h13.63c9.87,0,16.68-2.23,20.44-6.69
					c3.75-4.46,5.63-12.8,5.63-25.03v-57.5c0-9.25-1.58-15.78-4.74-19.58c-3.17-3.79-8.1-5.7-14.81-5.7c-6.72,0-11.55,1.9-14.52,5.7
					c-2.96,3.8-4.44,10.33-4.44,19.58v62.45h-59.85v-56.01c0-23.79,6.91-41.8,20.74-54.03c13.82-12.22,33.38-18.34,58.66-18.34
					c25.28,0,44.74,6.03,58.37,18.09c13.63,12.07,20.44,30.16,20.44,54.27V1455.93z"/>
				<path class="st10" d="M683.93,1536.72H541.72v-40.64h142.22V1536.72z"/>
				<path class="st10" d="M864.08,1378.11h-92.44v111.52h1.18c3.16-13.88,8.98-24.29,17.48-31.23c8.49-6.94,19.26-10.41,32.3-10.41
					c14.61,0,26.17,5.04,34.67,15.12c8.49,10.08,12.74,27.18,12.74,51.3V1619c0,24.12-6.92,42.3-20.74,54.52
					c-13.83,12.22-33.18,18.34-58.07,18.34c-25.29,0-44.84-6.12-58.66-18.34c-13.83-12.22-20.74-30.4-20.74-54.52v-48.08h59.85
					v54.52c0,9.25,1.48,15.86,4.44,19.83c2.96,3.97,7.8,5.95,14.52,5.95c6.71,0,11.65-1.98,14.81-5.95
					c3.16-3.97,4.74-10.57,4.74-19.83v-112.02c0-8.92-1.48-15.36-4.44-19.33c-2.96-3.97-7.61-5.95-13.93-5.95
					c-6.72,0-11.76,1.98-15.11,5.95c-3.36,3.97-5.04,10.41-5.04,19.33v16.36h-59.85v-192.31h152.29V1378.11z"/>
			</g>
		</g>
		<g>
			<path class="st10" d="M1029.22,1614.31c0,24.78-6.25,43.12-18.74,55.02c-12.5,11.9-29,17.84-49.54,17.84
				c-20.88,0-37.56-6.03-50.05-18.09c-12.5-12.06-18.74-30.31-18.74-54.77v-60.97H944v67.41c0,9.25,1.36,15.86,4.11,19.83
				c2.74,3.97,6.84,5.95,12.32,5.95c5.82,0,10.09-1.98,12.83-5.95c2.73-3.97,4.11-10.57,4.11-19.83v-287.98h51.85V1614.31z"/>
			<path class="st10" d="M1186.81,1614.31c0,24.12-5.99,42.3-17.97,54.52c-11.98,12.22-28.75,18.34-50.31,18.34
				c-21.91,0-38.84-6.12-50.82-18.34c-11.98-12.22-17.97-30.4-17.97-54.52v-216.6c0-23.79,5.98-41.8,17.97-54.03
				c11.98-12.22,28.91-18.34,50.82-18.34c21.9,0,38.76,6.03,50.56,18.09c11.81,12.07,17.71,30.16,17.71,54.27V1614.31z
				 M1130.85,1371.68c-2.74-3.79-7.02-5.7-12.83-5.7c-5.82,0-10.01,1.9-12.58,5.7c-2.57,3.8-3.85,10.33-3.85,19.58v229.49
				c0,9.25,1.28,15.86,3.85,19.83c2.57,3.97,6.75,5.95,12.58,5.95c5.82,0,10.09-1.98,12.83-5.95c2.74-3.97,4.11-10.57,4.11-19.83
				v-229.49C1134.96,1382.02,1133.59,1375.49,1130.85,1371.68z"/>
			<path class="st10" d="M1348.5,1614.31c0,24.78-6.34,43.12-18.99,55.02c-12.66,11.9-29.77,17.84-51.33,17.84
				s-38.76-6.03-51.59-18.09c-12.83-12.06-19.25-30.31-19.25-54.77v-281.53h51.85v287.98c0,9.25,1.45,15.86,4.36,19.83
				c2.9,3.97,7.61,5.95,14.12,5.95c6.5,0,11.29-1.98,14.37-5.95c3.08-3.97,4.62-10.57,4.62-19.83v-287.98h51.85V1614.31z"/>
			<path class="st10" d="M1433.71,1332.78c22.59,0,40.38,6.37,53.39,19.08c13,12.72,19.51,31.64,19.51,56.75v48.57
				c0,14.87-3.08,27.26-9.24,37.17c-6.16,9.91-15.06,16.69-26.69,20.32v1.98c11.63,3.64,20.53,10.41,26.69,20.32
				c6.16,9.91,9.24,22.47,9.24,37.67v55.51c0,4.96,0.08,9.5,0.26,13.63c0.17,4.14,0.34,8.02,0.51,11.65
				c0.17,3.64,0.51,7.19,1.03,10.66c0.51,3.47,1.28,7.36,2.31,11.65v1.98h-51.85c-1.37-9.25-2.4-17.26-3.08-24.04
				c-0.69-6.77-1.03-15.28-1.03-25.53v-68.4c0-9.25-1.72-15.86-5.13-19.83c-3.42-3.97-8.73-5.95-15.91-5.95h-12.83v143.74h-51.85
				v-346.96H1433.71z M1420.88,1495.85h12.83c7.19,0,12.49-1.98,15.91-5.95c3.42-3.97,5.13-10.57,5.13-19.83v-71.37
				c0-9.25-1.72-15.78-5.13-19.58c-3.42-3.79-8.73-5.7-15.91-5.7h-12.83V1495.85z"/>
			<path class="st10" d="M1611.32,1443.8v-52.54c0-9.58-1.37-16.19-4.11-19.83c-2.74-3.63-6.67-5.45-11.81-5.45
				c-5.48,0-9.58,1.82-12.32,5.45c-2.74,3.64-4.11,10.25-4.11,19.83v33.21c0,11.9,3.42,22.97,10.27,33.21
				c6.84,10.25,14.71,20.16,23.61,29.74c6.16,6.28,12.23,12.81,18.22,19.58c5.98,6.78,11.46,14.05,16.43,21.81
				c4.96,7.77,8.98,16.19,12.06,25.28c3.08,9.09,4.62,19.25,4.62,30.48v29.74c0,24.46-6.16,42.71-18.48,54.77
				c-12.32,12.06-29.26,18.09-50.82,18.09c-21.56,0-38.42-5.95-50.56-17.84c-12.15-11.9-18.22-30.24-18.22-55.02v-46.1h51.85v52.54
				c0,9.91,1.45,16.69,4.36,20.32c2.9,3.64,7.27,5.45,13.09,5.45c5.47,0,9.66-1.81,12.58-5.45c2.9-3.63,4.36-10.41,4.36-20.32
				v-33.21c0-6.61-1.2-12.89-3.59-18.84c-2.4-5.95-5.57-11.9-9.5-17.84c-3.94-5.95-8.39-11.73-13.35-17.35
				c-4.97-5.61-10.19-11.07-15.66-16.36c-5.13-5.95-10.35-12.06-15.66-18.34c-5.31-6.27-10.01-12.96-14.12-20.07
				c-4.11-7.1-7.36-14.78-9.75-23.05c-2.4-8.26-3.59-17.51-3.59-27.76v-30.24c0-24.45,6.07-42.63,18.22-54.52
				c12.14-11.9,28.83-17.84,50.05-17.84c21.21,0,37.81,5.95,49.79,17.84c11.98,11.9,17.97,30.07,17.97,54.52v46.1H1611.32z"/>
		</g>
	</g>
</g>
</svg>
